<?xml version="1.0" encoding="utf-8"?>
<svg xmlns="http://www.w3.org/2000/svg" viewBox="0 0 1280 1024">
  <path d="M364 518c-3 6-8 4-12 5h-8l-12 1-16 2-3 3-2 7c-1 3-4 4-6 4-8 1-12-2-15-9l-1-2c-3-8-3-9 0-16l-8-15-1-16-14-5c-1-1-4-2-3-4 0-2 1-5 3-6 4-2 9-4 14-4 4 0 9-1 12-4l-1-5c0-4 6-8 11-7l6 1 2-1-3-2c-5-1-8-5-10-9l-8-13v-5l-3-2c4-5 2-9 1-14l-5-1-19-2c-10 0-20-3-29-7-6-3-10-8-14-14-5-9-4-18-3-28 0-7 2-15 7-21l6-10-3-2c-5-2-10-6-14-10l-2-4-1-3c-4-5-6-11-7-17l-4-26c0-7 2-13 6-19l2-4c0-4 3-7 6-8l10-5h3c4 3 10 4 15 5l1 1c1 4 6 4 9 7l10 5 2 1c1 4 5 5 6 8l4 6c0 4 3 6 6 7l4 3c3 4 6 6 10 7l11 7c4 4 9 6 15 8 4 1 7 4 9 7l2 3 6-1-4-5c-4-2-6-6-9-10l-8-8c-4-3-6-7-9-11 0-2-2-3-3-3h-9c-6 1-10-2-13-6l-3-3c-6-3-10-7-14-11l-7-10-12-17-3-3-1-3c1-5-2-10-2-15 0-3 1-7 3-9 6-9 14-14 26-13h1c9-3 18-1 27-1 6 0 11 2 15 6l3 3 2 8c1 2-1 7-3 8h-3l-4-5c-1-7-7-7-11-8-7-2-13-1-19 0l3 3 5 3 8 2c2 0 3 2 3 5 0 4-1 5-5 6l-9 3c-4 2-6 2-9-2l-3-2 6-4c-6-3-12-3-18-4l-3 2c0 4-1 8 2 12l4 2 15 4c0 6-2 9-7 10v2c3 1 4 5 7 7 2 2 5 2 7 3h5c3 1 5 2 6 5l3 4-1-9v-8c0-6 8-10 14-9l11 4 2 2 2 2c5 1 8 5 13 8 7 4 13 10 19 17l8-3c3-1 5-2 8 0l3 1c4 1 6 2 8 5l5 8c3-1 5-3 7-6l-3-1c-6-1-8-4-7-10l5-11 10-22 4-12c2-7-1-13-6-17-3 1-4 2-4 5l-2 7c-1 4-4 5-8 3l-6-3c-2 2-2 3 1 4l4 1c1 1 2 2 1 4-2 7-5 8-13 6v14l-1 14c0 4-2 5-5 6-4 1-7-1-10-3-3-1-3-6-2-8 3-4 4-9 3-13 0-9 3-16 5-23 2-6 8-9 10-15l-3-12v-15l2-14 1-12v-3l-7 2-6-2c-1 2 0 3 1 4l2 4c5 2 6 2 6 7l-2 4c-3 3-7 5-12 2l-9 7-1 1-3 12-1 3v6l1 10 1 7c3 5 5 11 6 18l1 6c1 3-2 6-3 9-1 2-8 3-10 2-1-1-3-6-2-8 2-4 0-8 0-12l-2-5-2-3a516 516 0 01-1-29 135 135 0 0121-56c2-4 5-6 9-8h10c5 3 10 6 12 11l1 1 6-4h11c7 2 12 6 17 12l8 8 5 4c2 3-1 6-2 9l-7 1c-2 1-4 0-5-2l-4-3c-1-7-6-11-12-15-2-1-4 0-4 2-2 6-4 11-2 17l2 6c1 6 5 9 10 10l6 3 5 2-6 8 4 8h2c1-8 6-15 10-21 3-5 4-10 8-14 5-7 10-14 18-19 4-2 8-1 12 2 4 4 6 10 8 15l1 7c0 8 0 8 8 9 2-5 5-9 10-11l15-11 3-2c3 0 4-2 4-5 1-7 3-13 6-20 3-4 4-10 4-15V85l-4 6c-2 3-6 3-10 4l-5 1c-4 0-7-1-8-5l-2-3c-4 2-4 2-6 7l7 2 1 6c-4 5-8 6-14 3-2 4 0 6 2 8-2 6-7 8-11 7-8-3-9-6-8-13 1-6 3-11 6-16l6-6c6-7 13-13 22-17s19-4 28 2l4 4 1-1 5-16c5-12 12-20 23-26l3-2c5-3 11-1 15 3 7 6 8 15 9 23 0 7 0 13-2 20v7c1 2 3 3 5 1 4-5 10-5 16-6 5-1 9 1 13 3l12 8c4 5 5 10 7 15v3l-3 13v1c10-6 21-11 33-14l-2-4c-5-4-4-9-4-14l2-7 3-9 1-4-8 3c-2 1-3 2-3 4v3c0 3-1 5-3 6-3 0-6-1-7-4-3-3-5-7-6-11l-6-16c-1-4 0-7 2-11s6-3 10-2c0 7 0 14 4 21l4-4 3-1c6 2 9-2 12-5l1-1c4-1 5-4 7-7s4-3 7 0l3 3 11-6c3-2 6 0 9 1 4 2 7 6 8 10l2 6c3-1 4-3 5-4 6-9 14-16 24-19l12-1 12 3 11 5c6 3 11 8 13 15l3 6c1 3 0 6-1 9l-3 14 9-2 16-3 7 1c3 7 0 11-2 16l2 1h8c1-2 2-5 1-7-2-9 1-17 6-24l6-8c5-6 13-7 20-8 4 0 8 0 11 3l2 1c6 1 9 5 13 10 7 7 7 16 6 26l-2 9 11 5h8c4 0 9 0 13 3h4c6-3 10 0 14 4l1 3c1 8 2 16 0 24l-1 10-2 11-8 19c6 2 10 7 17 8l4 2 3 3c2 2 4 1 6-1l10-9c4-4 9-8 15-11 8-5 16-9 25-11l6 1c7 4 9 10 10 18s-2 15-8 21c-4 5-10 10-16 13l-2 2c-4 7-11 8-18 10-2 1-4 0-4-2l-3-8 18-8c8-4 13-10 19-17l1-6 1-6c1-3-1-4-2-5-2 1-2 5-5 4l-7-2c-7 3-14 8-19 14l-3 2c-3 2-4 5-4 8 0 4-1 5-4 7-4 2-4 3-2 8 1 2 2 4 1 7l2 3c3 2 2 5 1 8s-2 5-5 5c-8 1-10 3-13 11 1 4 6 3 9 5-1 4-2 5-5 4l-10-3-15 15c-4 5-10 9-11 16h5a45 45 0 0121-2c2 1 4 1 6-2l3-1 9-3c3-2 6-7 5-10l-2-7 5 2c2 2 4 2 6 0 6-6 14-9 21-13l3-1c6-4 13-4 21-3l6-2c6-2 11 1 13 7l5 12c3 6 2 10-1 15-2 6-5 9-9 13l-13 13c-4 5-11 5-16 1-2-2-4-3-7-1l-7 5-8 3c1 3 2 4 4 3 5-1 10-3 14 0 3-4 7-1 10-2 6-1 9 3 12 7l2 3v5l-4 6-15 17c-4 6-10 10-15 14s-12 7-16 12l3 15c0 7 0 14-2 20l-5 20h4c4-3 9-3 14-3 4 1 6 3 7 7s2 9 0 14c-2 3-2 7-2 10l10 2 1 2c2 4 1 8-2 11l-1 6c2 3 1 7 0 11l-4 5c-5 3-7 7-5 13 1 3-2 6-5 6h-2c-6 0-6 0-6 6-1 4-2 4-5 2-2-2-4-2-6-1-8 2-14 0-21-3l-3-1c-3 0-5-2-7-5-1-2-3-3-6-3l-11-4c-3-1-4-4-5-7-1-2 1-4 3-5l18-3 4-1c6-2 11-1 16-2 2 0 4 0 5 2 1 1-1 5-3 5l-7 3c-2 1-4 1-5 3 3 3 5 1 7 0 5-1 10-1 12-7 1-3 6-3 8 0l2 5 2 3 3-2 3-8 1-4 2-11v-1l-2-15-3-10 2-4-4-1c-4 2-8 2-11 5-4 2-8 2-12 2l4 2 2 4-3 1h-9l-5-1c-6 1-9-1-11-7-8-1-15 2-23 5-4-5-10-5-15-4-3 0-6 1-8 3-4 3-8 4-13 4-14 1-28 4-42 8l-6 1-2 6-5 1h-19l-7 1-35 8c-7 2-11-1-13-10l-9-1-19 2h-31l-3-1h-6l-6 1v-3h-35l-1 5-5 1-9 2-26-2h-20l-14-1h-26l-8 1h-37l-16 1-5-2c0-3 2-3 4-3l10-2-1-1-5 1-39 1-21-1-8 1-12 1c-3 0-7 1-10 3-6 2-9 0-11-6l-1-2h-35c0 5-3 6-6 9l16 1 28 1c5 0 8 3 12 4 0 2-1 3-3 3l-18 1c-10-1-20-3-30-2l-25 1h-11l-6-2c-2 4 0 6 2 9l3 1a310 310 0 0033 1h57c6 0 11 2 16 4 2 0 2 2 2 5h-4c-10-2-20-2-30-2h-14l-5-1-22 3-3-1h-28l-4-1v5l2 2 12-1 12-1 13 1 8 1c2 2 4 4 4 6zm101-204l-3 2-6 9-10 14-4 6 19 8c1-6 3-11 2-17l2-16v-6c4-1 3-5 5-8-5 1-7 4-5 8zm87-181l-1 3c2 3 1 5 0 8-3 6-6 12-11 17l-10 11-4 5 5-1c3-2 6-1 8 1 5 3 6 7 4 13l-1 5 11-13 21-14 2-1c5-2 6-3 4-9h-2c-4 1-8 1-10-2-4-4-9-8-11-13-1-4-4-7-6-10l1-5v-4l13-15c3-4 7-6 13-5l-4-11c-2-1-3-4-3-7l3-17V56l-2 2c-2 3-5 5-9 5-2 0-3 1-3 4-1 4-1 4-6 4l-9 1c-2 2-2 5-3 7 0 4 0 8-3 11l-5 3-5 17-2 11v3l3 5h11l4 1 7 3zm-73 234c-3 0-6-2-9-1-6 2-11-2-16-4s-9-2-13-2l-3 1-3 4 1 8c3 4 4 8 8 10l10 6c2 4 6 6 10 7 5-3 6-3 13 3l2-14v-1c-2-3 0-5 2-7l4-7c5-5 11-7 19-4 5 2 10 5 11 11 2 6 3 12 2 18l-1 16-1 5-2 15 9-8c1-1 3-2 5 0s3 4 2 6l-2 4-1 8c0 2 3 2 5 3s3 3 5 3c2 1 1 3 1 4h8l-3-12-2-5v-9l1-7c1-4 2-9 6-13 2-3 2-5 1-9l-4 4-5 4c-2 2-5 3-7 2-5-1-7-3-7-6s2-6 6-7c8 0 13-5 18-10l3-4 2-16 1-9-5 3-7 10c-1 2-4 4-1 7l-2 2-10-1c-2-1-2-4-3-6s-1-4 1-6l3-4c2-3 4-7 8-8l1-2c5-4 10-9 17-10v-3c4-7 3-14 6-21v-3c-3-5 1-10 1-16v-1c4-5 8-9 13-12 2-2 4-2 6-1 8 2 14 7 20 13s13 11 22 11l-2-5-12-14-2-2-9-14-7-11c-2-2-2-6-2-8 1-2 2-5 4-5 6-2 11-4 17-4 8-1 15 0 22 3 5 1 9 3 13 2 1-5 4-12 7-16l6-7 12-11c7-6 16-10 25-12 7-2 11 2 17 3 3 4 6 7 7 12 0 5 1 9-2 14l-1 2c-3 10-8 18-16 24l-2 3c3 3 3 3 7 3l6-12c3-5 7-8 11-10 7-4 13-9 21-11 7-1 16 3 18 10 1 6 4 12 4 18v8c2 4 0 8-2 11-3 5-8 9-15 8l-1-4 4-8 1-3c2-2 2-4 1-7-1-1-2-3-1-4 3-4 1-9 0-14-1-3-2-4-6-3-8 1-15 4-20 11l-5 7c-3 3-2 7 1 9l4 6c0 3 2 6 6 8l6 6c3 2 5 5 10 4 5 0 9 5 8 10-2 6-10 9-15 4-4-3-8-5-11-10l-6-6-7 7 7 2c1 3 3 5 6 6 5 2 10 5 13 9 6 6 10 13 15 20l7 15 2 3c7-2 12-8 17-13l15-14-8-6-9-9-8-14v-3-11-8l3-11 13-10c4-3 6-7 8-11v-7c-1-2-3-3-6-3-2 0-2 2-2 4l-1 4c0 3-2 6-4 6-4 1-7 0-9-3l-3-7c3-12 11-17 20-20v-14l17-26c6-8 9-17 14-26l-4-1c-4 0-7 1-10 3l-16 16c-5 5-9 11-10 18-1 3-2 6-5 7l-4-1c-4-1-7-6-6-9s2-6 5-9c3-5 7-9 12-13l13-13 4-3-1-2c-5-3-7-7-9-12l-4-3c-3 0-11 5-12 7v3c1 5 0 10-4 15l-10 13c-3 4-5 8-9 11l-19 16-7 8-6 3c-3-1-5-2-6-5l-2-7c3-2 5-3 8-3l7-5 2-2c3 1 5-2 7-4l8-8c7-7 14-14 18-23 2-4 0-9-4-9-8-1-17 1-24 6l-10 10c-2 2-4 4-4 7-3 3-6 5-10 5-3-1-8-5-7-8s2-7 5-10l22-15 7-3c-3-3-6-4-9-5-5-1-9-2-12-7-10 10-21 17-33 23l16 6 2 9-2 9c-5 8-10 15-16 21l-13 12c-10 9-21 17-33 24l-9 9c-2 3-5 4-8 4s-6-2-6-5c4-6 8-10 14-14 7-6 16-9 22-16h1c5-1 7-6 11-8l8-6c2-1 3-3 2-6h-1c-4-2-6-5-5-9 0-3 3-4 6-5l6-2 4-11-12 2-18 8c-10 4-19 10-25 19l-2 3c-1 3-4 4-7 4-3-1-7-4-7-6-1-6 2-11 8-15l2-1c2-3 6-5 10-6l3-3-17 2h-2c-2 4-5 2-8 1-3-2-4-2-6 1l-1 1c-4 3-4 4-1 7 3 2 4 5 5 8 0 3 0 5 2 8v7c-3 4-3 8-3 12-1 3-2 6-1 8l3 11c-2 2-4 4-6 3l-6-8v-10c-1-5 0-10-3-15l-1-4-4-2-4-1-5 5h-7c-4 0-6-4-6-9-4 2-7 5-9 10l-3 4-3 7c3 3-2 4-1 7v1c2 7 2 15 8 21 1 1 3 3 5 3 5 0 6 5 10 6l1 12-2 11c-1 4-2 10-5 13-4 4-6 9-9 13l-14 19-2 2-15 18c-3 5-7 5-11 1h-1a472 472 0 00-7 17v7l2 1-5 4-3 1c-4 1-6-2-9-5-2-2-2-3 0-6l5-8c1-3 1-5 3-7 3-3 4-7 4-11l3-13v-6l-1-6c-1-7-8-10-14-7-3 1-5 5-4 7 0 6 0 6-5 8-3 1-5 3-6 7l-2 9c-1 5-2 10 0 15 4-1 6 0 6 2 1 5 2 10-3 13l-1 5v8zm524-39l-6 2-4 3-6 6c-2 4-7 5-11 2l-4-5-3-3a349 349 0 00-24-6l-9 7-16 15-16 15c-4 5-8 10-14 10-4 6-3 12-3 17 0 8-1 16 3 23l1 5-5 7c-3 5-11 5-15 1-4-6-6-13-8-20l-2-6c-3 0-3 3-4 4v3c-3 4-2 8-1 11 0 5-1 6-6 6-1-1-3-2-4 1 3 2 8 4 7 10l-5 3-5-10c-4 1-7 4-12 3-1-1-2 0-3 1l-4 2-2-8c0-5-1-8-3-12-2-5-3-9-2-14 1-3-1-6-4-6s-5 0-5-5c-2 0-1-2-1-4l2-4c6-5 11-3 15 2 1 3 3 5 6 7 2 3 3 5 2 8l-1 3c2 4 3 9 1 13v2l4 2c1 1 3 0 4-1 4-4 4-10 7-14v-1c-2-3 1-4 1-6v-6h1l4-9 4-20c0-5 1-9-1-13l-4-5 4-6-4-2-6 11c-3 3-4 7-1 11 1 3 0 5-4 5l-7-1c-11 10-25 17-39 22l-2 6c0 6 0 13 6 18l2 4 3 3c2 2 2 7 0 8-1 2-5 1-7-1-1-2-2-3-4-3-3 5 0 13 6 18l2-4 4-2c1 1 3 2 3 4l-1 4c-1 4 0 5 3 5 10-2 20-1 30-2h13l24-1h16l40-2h8l8-2 12-1-7-2 1-11c2-4 2-7 2-11v-6c1-6-2-10-3-15-3 0-5 2-5 4-2 6-5 10-11 13l-3 3-3 9c-2 4-3 7-1 10-7 7-9 7-14-1 0-3 0-6 2-7l3-8c4-6 2-9-3-13-5-3-5-9-2-14l5-10-1-4-4-6c5-7 7-7 14-4l6 18c2-3 5-4 8-3 3 0 6 0 8-3l4-1h11l9-4c6-3 13-6 19-11l17-16 3-5c-10 0-12-1-13-10zm-134-86l7-12c3-6 9-8 16-9 4-1 8 2 10 6l2 6c3 2 3 5 2 8l4-2 7-5 3-2 8-7c2-1 5-4 5-7l-13-6c-5-2-5-2-8 1-2 3-6 2-8-1-2-2-1-4 1-6l7-9 10-14 1-1-32-12c-2 4-4 8-4 14 1 8-1 11-9 12l-3 1-6-5c1-5 1-11 5-15v-1l10-19 3-6-24-6c-4-1-8-2-13-1h-2c-4-2-8 0-11 2 0 5 0 9-2 13l-7 12-14 21-5 12c-2 5-4 10-8 14l4 4c4 5 5 11 8 16v5c-1 5-4 9-8 12-3 3-3 4 1 6l11 7c3 1 5 2 6 4l10 9-1-6c1-9-3-18-4-27l-1-2-4-8v-2c-4-2-4-6-5-9s-1-7-3-9c-3-4-1-8 0-12 2-8 10-10 16-5 5 4 9 9 16 12l1 2 3 3 7 5 7 8c2 2 3 4 3 7l1 4zM726 450l-4-3c-6-6-8-13-8-21l-1-23-1-18 1-6c1-4 3-9-1-13l-1-3c1-2-1-4-2-5l-1-4-3-12c-2-3-3-6-2-9l-2-6c-2-1 1-4-1-6l-1-1-6 10-2 1-3 4c-3 5-8 6-11 9l-4-3 3-7 10-13 5-6 16-19h-1c-1-2-2-5-1-6 1-4 3-8 8-8l-2-6c-6-3-12-4-15-4-11 3-18 11-23 20l-4 8c0 3-3 5-1 7-2 3-1 7-3 10s-3 6 0 10c5 6 8 14 6 23l4-1c6-1 11 1 15 6l-2 8v7c1 3-1 6 3 8v2c1 4 1 9 3 12 2 5 4 9 1 13v2 14l1 9 4 14 5 5 4 2h5l12-1zm-306-81l-6 8-11 9c-3 2-5 4-6 7-3 5-7 9-11 12-4 2-5 5-4 8l4 21c1 4 3 7 6 9 2 2 3 6 0 7-2 2-4 3-6 2l-8-1c-2 1-4-1-5-3-2-7-3-14-2-20v-14-20-22l1-3c-1-6 0-12-3-18-3 3-6 5-8 9l-1 3-2 2-5 13c-3 6-4 12-5 18v7c-2 4-1 7 2 10s3 8-1 11c-2 2-3 4-2 7 2 6 1 11-1 16l-1 6 11 1 32-1 17 1 34-2h9v-9c-2 2-3 6-6 5l-8-3c-2 4-5 5-9 6l-5-2-1-3-1-1c-3-3-4-7-6-11-4-7-6-13-3-21v-2c-1-2 0-4 1-5l5-5v-11c0-5 2-8 6-10 1-1 3-3 2-4l-3-7zm-76-25c-1-2-4-3-3-6 1-1-1-2-1-3l-4-4c-4-7-10-12-15-17-7-7-15-11-25-11l-4 1c-3 4-5 8-5 13 0 8 2 16 6 22l17 20 4 2 13 1 4 3c-4 5-9 2-13 4l10 13 4-4 6 2 3-3c2-5 3-10 6-14 2-5 1-9-2-13-2-2-2-4-1-6zm-60 0l-2 9c0 4-2 5-4 5l-10-1c-3-1-4-2-3-5 0-6-1-12-6-16l-9-6c-4-2-7-1-9 1l-2 2c-8 2-9 9-10 15 0 5-2 10 0 16s2 11 7 15c4 2 8 6 13 7 8 3 16 4 25 4l11 1v-1c-1-6-7-11-5-17v-1c-3-3-2-6-1-9 2-5 5-6 10-6h4c-5-3-6-8-9-13zm376 7v-10l-1-7c-5-4-9-9-15-11l-22-8-15-4-11-8c-3-5-8-7-12-11l-6 4c-4 3-4 8-6 12l1 5c2 5 6 8 10 12l1-3 5-1c5-1 9 4 7 9-2 3-1 5 2 6l3 3 13 8 5 5c3-3 5-4 9-3s5 5 7 8c5-2 10-4 14-1l11-5zm-244-36l-13 9-14 17-2 5-4 4c-2 2-1 5 0 8v4c-2 9-1 19-2 28l1 2 15-12 11-11 8-9 5-6c4-4 9-8 6-15 2-3 6-4 9-3l11-16-2-3h-9l-7 2c-7 2-8 2-13-4zM875 79h-8l-6 4c-4 3-8 7-14 6l-2 3c-1 7-1 13 4 19v4c-1 6 3 11 5 17 0 2 1 3 3 2l5 2 4 2c6 1 12 2 17 5 5 2 10 1 13-3 3-6 7-10 12-14l2-3-12-6c-4-2-7 0-7 4l1 4v5c0 4-6 7-10 6-2-1-5-6-4-8l3-15c1-7 4-13 6-20 0-3 0-4-4-4-2 0-3 0-4-2-1-4-1-7 1-11l4-4-3-3-6 10zM363 463c2 2 4 2 6 1 9-1 17 2 26 0l2 1 5 1h13l12 1 35 1h14l34-2h36l27-1 29-1h2l9-1 2 1 21-1 11-1 34 1 10-1-2-6h-19l-25 1-13 1h-13l-20-1-10 1-20-1c-7 1-14 2-21 0h-21c-4 0-7 0-10 5-2 4-8 3-11-1-1-2-3-3-5-3l-7 1h-41l-27 2h-22l-9 1-29 1h-3zm84-235l-1-7c-2-2 0-5 0-7 0-3 2-4 4-4 5 2 6-1 7-4l1-4 3-16c1-4 0-8-1-12l-10 1-18 2-4 2-3 9-1 15 2 1c7 1 7 1 8 8v4c-2 4-5 6-8 7-3-2-8-1-10-5l-5-12-2 3-10 23c-1 2-3 5-2 8l5 4 11-6c5-4 10-6 16-8s11-4 18-2zm167 133c-3-4-7-7-12-9-2 0-3-2-4-3l-15-13c-1 2-2 3-1 4 2 3 0 8 3 10v2c0 5 3 8 3 13l2 4c-1 5 2 8 2 12l4 10 5-6h5c2 1 3 8 2 10l-6 11c0 1 2 3 1 4-2 3 0 6 1 8 2 7 5 13 9 18 3 2 2 5-2 6s-7 0-10-5l-4-5c-3 7-2 13 3 19 6-1 12 2 18-1l1-22-3-29c-1-3-2-6-1-9l-1-15v-14zM778 59l-10 3-7-7c-7 3-12 7-16 13l-2 2c-2 3-6 3-8 0-5-5-3-11 3-14 4-1 4-1 4-6l-2 1-2 1c-9 7-12 16-12 27 0 6 3 11 6 16 4 6 4 6 10 3l2-1c6-3 12-5 19-6h3c1-2 2-2 4-1h4l4-2c-2-4-3-7 1-11 3-3 3-7 3-10s-3-5-4-8zM499 262v-3c-1-7-3-13-1-21l4-14v-2l7-18 6-10c3-5 5-10 10-14v-2-1l-4 3-5 4-16 11c-3 3-6 6-9 7-5 2-8 5-9 10-5 1-10 1-13-3l-2 3c3 3 8 0 8 5l-7 5-7 1-1 7c4 0 8 2 11 4l5 3c3 1 6 1 7 5l3 2 3 4 3 5 7 9zm453 38c0-2-1-4-5-4l-7 1-5 1c-4 1-9 3-13 6l-5 3c-7 5-14 9-16 18l-2 3c-2 4-6 5-11 7 2 7 2 15 2 22 3 2 4 1 6 0l4-4 16-15 10-10 13-11 4-5 9-12zm-188 89h-16l-7-1c-5 0-10-1-13-4h-4l-2 3c7 0 10 3 9 9l-2 6c-4 5-4 10-3 15s2 9 1 13c0 5 2 9 6 12 3 1 5 3 4 7 5 1 9-1 14-1 4-1 4-1 3-5l-5-15-2-9v-14l2-7c2-4 6-6 8-4 3 1 6 3 6 7-5 7-2 15 0 23l2-4 3-18-1-5-3-8zM250 272c-6 2-10 5-13 10s-5 10-6 16l2 4c6 4 11 8 19 7h2c7 3 14 1 22 1l4-12c1-3 3-5 6-7 2-3 5-2 8-3-4-2-7-5-11-6l-8-3c-3-2-5-1-7 1l-4 2c-5 2-9 1-13-2l-1-8zm282-80l-4 3-6 9-5 10c-4 9-6 18-7 27-1 6-2 11 2 16l1 6c0 3-3 5-6 4l-7-4c1 4 2 7 1 9 0 3-3 5-6 8l9-1 8 5c10-17 24-31 39-43l-3-4-2-4-3-3c-3-1-3-4-5-6s-1-5 0-8v-2l-2 3-1 5-7 16c-1 3-1 6 1 9l2 4c-3 3-7 4-12 3-1-3-3-7-3-11 0-5 0-11 4-17l4-7 8-21v-6zm46 175l-3 4c-5 3-6 9-11 12-2 1-2 4-3 6l-1 6c-2 3 1 6 1 9s-3 6-3 10l1 6v3c0 4-1 7 1 11 1 2 3 4 2 6 0 5 2 7 4 10 7 2 14 2 21 0l-1-12c-2-2-5-3-5-5 0-6-5-10-6-16 0-4-3-7-5-11s-1-11 5-14l4-2 5 3c3-2 1-4 1-5l-6-19-1-2zm137-22l6 13 2-2 7 2c4 4 1 8-1 12 4 6 10 7 16 8l15 1 5-1c-1-7-3-13-8-16l1-6-2-6c-1-2-1-5-3-7l-5-7h-1c-4 4-9 5-15 1-3-2-5-1-8 1s-4 7-9 7zm204-52l-4-6c-1-2-1-4 1-6l10-11 6-6 4-4c3-3 5-5 6-9-5-2-8-5-10-9-1-2-3-2-5 0l-3 6c-4 6-11 8-17 4l-3-2-1 4-2 14v3c1 2 0 5-1 7l-1 7c-1 5 0 10-3 14l-1 9 24-15zM503 173h-14l-10-1c-5 0-6 1-7 6v3l-1 17-1 5 5-3 15-11 16-11 2-2 3-3 15-11 4-5v-4c-2-3-3-7-2-11l-4 1-10 5-12 9c-3 3-3 6-1 10l2 6zm163 101l22-16 14-16c1-2 4-4 3-9-4 4-7 2-10 1l-8-5c-3-2-3-2-2-6l-1-3c-2 1-5 2-6 4l-9 8c-5 5-6 12-8 18v2l4 18 1 4zM477 450c-2-5-3-10-1-15l1-21-1-4-2 1c-5 1-9 2-13-2s-10-4-14-9l-1-1c-4-1-7-4-11-7-1-2-3-3-4-1v5c-3 3-1 8-2 11v4c1-4 3-4 5-5 5-1 8 1 7 6 0 5-2 10-1 16 1 2 1 5 3 7l6 6 2-3 1-8c1-6 4-11 11-14l4 7-4 7c-2 4-3 8-1 12l4 5 3 2c0 3 2 3 4 3l4-2zm42-127v1l8-7 11-12c6-6 10-14 16-21l7-13c2-3 2-3-1-6l-4-2-8-4c-6 4-11 10-15 16l-6 9c-2 3-2 6-2 10 1 4 0 5-3 7-3 1-3 2-2 4v8l-1 10zm-41-32l11-9c2-2 2-3 0-5-3-3-6-5-5-10v-1l-8-16-2-2-6-2c-4-1-8-1-9 3-1 5-7 8-6 15l-1 2c-2 3-1 5 2 5h6l4 1c0 2-2 4-3 4-3 1-6 3-9 2l-2 1 1 2 9 4 9 4 3 1 6 1zm228-176l-14-1c-8 0-16 3-24 5s-16 5-22 11l-2 2c-4 1-6 6-9 8l-2 3c4 1 9-1 10 5 7-2 13-3 19-6 8-4 17-6 24-12 4 0 7-3 10-5 4-3 8-5 10-10zm82 174c-1 5-1 8 1 11l3 3 2 4 7 5c2 4 5 5 8 8 5-2 9-8 15-8h18l-3-3c-2-3-6-6-7-10l-4-6-4-4-4-2-10-2h-5c0 7-10 10-17 4zm-573-4h1l5-11 4-4c5-1 10-4 14-8l4-2 11-4c0-3-2-6-4-7l-13-10c-7-5-15-4-20 3-4 3-5 7-4 11v3c-3 10 2 19 2 29zM706 69l-1-11c-1-4-4-5-7-3l-5 3c-5 4-9 10-12 15-4 5-5 10-7 16 0 2 0 4 3 5l7 4c3 3 7 3 11 2 3-1 5-2 5-5l3-10c2-5 4-10 3-16zM352 330c0 6 6 5 8 8 6-1 7-2 7-8 0-7 1-15 3-22l2-8c0-3 3-6 2-9v-2l3-18-1-1-5 5h-9l-8-4-2 8c-2 4-2 9-1 15 0 5 1 9 6 12l7 7c1 2 2 3 0 5v4c-2 5-4 7-9 7l-3 1zm283 42c5 3 5 4 3 10-2 7-2 13-2 20s3 14 4 22v1l2 8c1 5 2 9 7 11l-1 8 40-1c-1-2 1-4-1-6-2-1-1-4-2-7l-4 5c-7 8-12 9-20 1-2-2-2-5-3-7-3-5-4-11-5-16l-3-9-5-8-4-12 1-12 4-16-11 8zm-132 79v-3c0-14 0-28 2-42v-11c3-6 0-11-2-16-8-2-9-1-11 6l-2 5-2 5v20c0 4 1 7 4 10l-2 7v1c7 6 7 8 4 15-1 1 1 3 3 3h6zM393 286l-1-2c-3-2-5-1-6 3v3c-1 3-3 6-3 11l12-10c7-4 14-9 19-15l10-9 13-13v-1l4-9-3-2c-2-2-4-2-6-1-6 2-12 4-16 9l-1 1c-7 4-10 11-14 17l2 3 2 6c-3 2-3 7-8 7l-4 2zm176-156l1 5c-2 4 0 6 2 9l4 1c5-2 8 2 13 3l-1 3v5c1 2 3 1 6 0 2 0 4-3 6-4 4-1 6-4 8-7-2-6-8-10-9-17l-1-1c-2-3-5-4-8-5l-11-3c-3-1-6 1-7 4l-3 7zm307 260l1-6a272 272 0 003-28c0-2-2-5-1-7 1-3-1-6-1-9l-1-9-3-9c-4 2-7 2-10-2-2 2-1 4 0 5l6 10 2 3-6 9c-1 5 2 10 0 15 1 4-1 7-2 11-2 6-4 13-2 20l14-3zM337 282l3-12c-1-4 1-6 3-9 2-2 2-5 0-7-3-5-6-10-11-13-6-5-12-8-18-11-2-1-4-1-5 2-2 5-1 10 1 14l4 7c1 3 2 6 7 6s12 5 13 10l-5 4 8 9zm481 59l-9-9-13 15-8 14c-3 3-6 8-12 7 0 2 0 3 2 4l11 1 1-1c2-3 6-3 9-2 4 0 7-1 9-3l19-14 1-2c-5 3-10 5-15 2 0-5 1-8 5-12zm16 110l-3-1-15 1-28 2h-12c-2 1-4 1-5 3-3 3-7 3-10 1l-5-2h-41c-5-1-10 1-13 7h47l34-1 16-1 30-7 5-2zm22-138l3-10c-3-4-1-8-1-13-2-10-2-21 3-31v-2c0-3-2-3-4-2-1 0-3 2-4 1-4-2-10-1-12-7h-1v5l3 20v6c0 4 3 7 5 10 1 2 1 4-1 6s-1 3 0 5c3 3 6 6 7 10l2 2zm-225-28v-5c1-4 3-5 7-4s9 2 11 7h1c3-1 2-5 2-7 3-7 1-12-5-15-4-3-8-4-13-5 0 5-1 7-4 7h-17l-6-2c3 6 5 10 9 13l2 4c3 4 7 7 13 7zM311 432c2 1 4 0 6 2h7l6-2c3 0 4-2 4-5l-1-12c-5 1-9 0-13-3-3-1-5-3-7-6l-3-6-10 2 1 7c1 4 3 7 3 11l1 2 6 10zm112-150l-7 5-9 8-13 12c-2 3-6 4-8 5s-4-1-6-2l-2 21 5-5 3-3c4-1 7-4 10-6l14-11c2-2 4-3 4-6 0-4 3-7 7-6 7 3 11-1 17-3 2-1 2-3 1-4l-16-5zm452-10l3-5 2-5c3-3 4-3 7-1l4 4 1-10c-4 1-7 0-8-4l1-10-10 15v1c-3 6-5 13-6 20v4c-1 8 3 14 5 21h11c1-8 4-16 4-25-6 3-10 1-14-5zm47-144c-8 5-12 13-19 18l-1 3 30 11 2-5 2-14c1-4 0-6-3-7l-11-6zm-158-10v2l10 1c4 2 6 0 9-2l11-10 4-5c4-2 6-5 9-9l-16 2-14 3c-5 1-11 1-15 3s-10 2-13 6l8 1c5-3 9-1 13 2 1 4-4 5-6 6zm252 169c-7 0-12 0-15-5s-5-4-10-1l-6 3c-5 0-7 2-10 5-3 2-4 4-4 7l12 9c12-3 23-8 33-18zM621 120c4-6 6-14 1-20-3-5-8-10-15-9-7 0-12 3-15 9l10 13 19 7zm59 304l1-5v-8c0-4 0-8 2-11l1-4c-1-3-3-6-3-10-1-4-2-8-5-11l-9 5 1 3c1 4 0 8-2 10s-2 4-3 7c-1 6 1 12 4 18l2-10c6-1 7 2 9 6-3 4-3 4 2 10zm157-303c0-8-3-11-12-9-6 1-12 5-16 11-2 4-2 4 1 8l1 3 4 4 12-1c5-4 10-9 10-16zm-378 44v-6c3-6 1-11-1-16-1-3-5-4-7-1l-8 10-10 17v1c9 0 17-3 26-5zm386 60l-2-1c-3-2-7-3-10-8-1-2-4-2-6-2-1 7 7 27 11 29l3-8-2-5 6-5zm141 95c-3-3-6-4-9-2h-3c-5-1-7-4-9-7l2-5c-2-2-4-2-5 1l-5 7c2 4 4 8 10 8l1 1c7 5 12 2 18-3zm-54-134c-3 5-7 7-8 13 10 1 19 1 28-1l1-2-21-10zm-205-80l-6-10-5-11c-2 3-4 12-4 16 5 0 9 2 11 7l4-2zm8 217l1-1c-3-4-7-6-11-8-2-1-4-2-6-1-5 1-8 7-6 13l6-4c7-5 7-5 15 0l1 1zm239 67c-5 6-4 18 2 23 4-7 3-18-2-23zm-55-226c-6-7-14-6-22-9l-3 5 25 4zm21 67h19l1-1-1-2-4-3c-3-2-6-1-8 0l-7 6zm-559-83h-2l-1 12c0 4 2 6 4 7 3 1 5 0 7-1l-5-6-2-2-1-10zm337 321c25 4 37 4 42 0h-42zm243-261c-3-2-4-2-12-1-4 1-8 0-12 2l4 3c2 2 4 2 6 1 4-3 9-4 14-5zm-305 93l11-21v-3l-1-2-4 7c-1 2-1 6-4 8-3 4-2 8-2 11zm131-19c5-2 8-6 13-4l1-7c-3 0-6-1-8 1l-6 10zm256-15c-1 6-4 10-7 14l-10 12-2 2 11-9c5-4 8-10 9-16l-1-3zm-403 34v-9l-9-5c-2 2-3 3-1 5 3 2 5 4 6 7l4 2zM326 457c-3-2-6 1-8 2l-2 6c4-2 8 1 11-2l-1-6zm316-145l10 4c3-4 3-4 2-7h-11l-1 3zm195 19l-2 6-3 7c3 0 4-2 5-4 2-3 2-7 2-11l-2-4-3 1c-1 3 2 3 3 5zm-69-204c-6-3-12-4-19-2 6 4 12 4 19 2zM587 397c-1 3-4 7-2 10 2 4 0 8 3 11 2-7-1-14-1-21zm71-18c-4-1-5-1-6 4l-1 10 1 2 6-16zM566 42l-10 9v1c5-2 9-7 15-4 1-5-3-4-5-6zm-1 322l4-7c2-4 1-5-3-6-2 9-2 9-1 13zM518 83c-1-4-4-4-6-4-4 0-8 0-12 4 6-1 12-4 18 0zm262 328c-2 5-6 9-3 14 4-3 3-7 4-10l-1-4zm-88-196l14 1c-2-5-6-5-14-1zm-63 216c0 4-2 8 0 12 3-5 3-8 0-12zM358 264l1 1 3-2c2-4 5-6 9-5v-2c-6 0-10 2-13 8zm76 7v1h6l1-7h-1l-6 6zM757 46l-1 2 4 3c1 1 3 0 3-2 1-1 0-3-2-3h-4zm260 219l4-6-1-1-9 4 6 3zM306 393l1-1-4-4c-1-1-2-2-3 0l1 3 5 2zm632 2c2-3 5-2 4-6l-5-1 1 7zM587 174l-5 2v3h2c1-1 3-2 3-5zm384 255c-3 2-2 4-3 6 4 0 5-1 3-6zm-198 40h-9c3 2 6 2 9 0zm-442-23l1-6c-4 3-4 4-1 6zm619-204l-5-1c3 3 3 3 5 1zm-31-71c5 2 5 2 7 0h-7zm-232 0c0-4 0-4-3-4l3 4zm-54 200c-4-1-4-1-5 3l5-3zm-355-35c1-4 0-5-2-5h-1l3 5zM867 64v1l5 1v-1l-5-1zm-14 175v-1-2l-2-1-1 1 3 3zM507 474v1c1 0 4 1 6-2l-6 1zm-188 6c-3-2-4-1-6 1l6-1zm-23-235c-2 0-2 0-3 2l3-2zm15 235c-2-1-3-1-4 1l1 2 3-3zm288-8l-1-2-5 1v1h6zm423-144v-2l-3-1-1 1 4 2zM586 471v1h3l-3-1zm22 0l-1-1-4 1v1l5-1zm244-138c1-3 1-3-1-5l1 5zM353 464v1l4-1h-4zm170 9v1h2v-1h-2zm106-24h1v-2h-2l1 2zm-71 23v1l2-1h-2zm-43-23v-1 1zm23 24l3 1v-1h-3zM337 310h-1v3h1v-3zm1 164v-1l-1-1-1 2h2zm551-234l1-2h-1l-1 1 1 1zM718 939l-25-4-31-4-15-4h-9c-9-2-18-1-27-2l-15-2-17-2c-13-3-25-2-38-2-9 1-18 0-27 2l-4-1c-2-1-3-2-3-4s1-4 3-5l10-1h11l32 3 10 1c7 2 15 2 23 1v-3h14l22 2 34 3 36 4 24 3 15 2c4 2 8 2 12 2l20 2 2 1c-1 3-3 4-6 4l-25-2-11-2-38-5a982 982 0 00-28-1l3 1 47 8h4l31 5 17 3c4 0 4 1 6 5-8 2-16-3-24-1-2 5-8 5-12 4l-46-4-24-3h-5l4 2 26 8 24 3 24 4 17 3h1c8 4 16 2 24 0l16-2c12-3 24-5 35-11 5-2 10-3 14-6 6-4 12-7 16-12l10-9 2-3-8 2-8 2c-3 1-5 4-6 7-2 5-7 6-10 3l-3-6c-1-4 2-9 6-11 4-3 9-4 14-5l24-6c-2-3-5-3-7-3l-8-1-13-2-9-4c-3-2-3-6-2-9s4-4 7-4l3-1c7-3 15-4 22-4l5-2-8-3c-6-3-8-7-8-13 0-3 2-4 4-5 7-3 14-6 22-7 3 0 4-1 4-4l2-10c1-4 0-6-4-6l-10-1-13-4c-3-1-4-3-5-5-2-3-1-4 1-7 3-4 7-4 11-5l26-3 1-9h-16l-11-1c-7 0-10-4-10-13 5-4 11-3 16-4l10-2 12-1h3c1-3-1-3-3-3h-17c-7 1-13-2-19-4l-2-3-1-7c6-3 13-4 19-5l9-1h3c2 0 4 1 4 3s-2 3-4 4l-8 1c2 3 4 3 5 3 4 1 9 1 12 3 2 1 4 0 4-2 1-2 2-4 1-6l2-7 4-1c2 0 4-1 4-4l1-7 2-27c1-9-1-18-1-27l-1-22 1-22 1-9c0-4-2-6-5-5-11 2-21 1-31 2h-18c-4 0-7-3-6-7v-6l7-3-4-2c-3-1-5-3-4-6 0-3 1-5 5-6l18-5 4-1h-29l-12 1c-5 1-7-1-8-6-1-3 1-5 4-5 7-2 13-1 20-1l16 1h1c7-4 16-2 24-3l24-1h1v-6h-4l-2-3c1-5 1-11 4-16 3-4 10-5 13-2 3 2 2 6 2 9l2 5c4 2 4 5 4 9-1 4 0 9-3 14l-2 14-2 14c2 4 9 2 11 8-4 4-8 1-12 1v3l-2 31-1 20-1 11-1 18c1 8 0 17 4 25l1 4c-2 5-6 7-11 6l-2 12-5 33c-1 9 0 18 1 27l2 19v8l1 28 2 26v14c-1 3-4 5-8 4-6-2-8-7-4-12 2-3 2-5 1-9s-2-8-1-12v-1l-4 2-6 2c-2-1-4 0-6 1l-23 5h-5l-5 1v1l9 3 14 3h6l3-2c4 0 5 1 4 5l-6 12c-6 8-13 14-19 20l-14 14-2 1c-4 1-7 3-9 6l-4 1-16 7-3 1c-16 4-32 9-48 10l-4 1 3 1a1593 1593 0 0040-1l34-5c8-1 15-4 22-6l6-5c1-4 5-6 9-9l8-6c2 1 5 0 7 3h5c8-6 15-12 22-20 3-5 6-9 7-16 1-4 0-7-1-10l-2-3 1-4c1-2 3-1 5 0 6 3 7 5 7 12l-1 7c-1 8-6 14-11 21-5 8-14 14-22 19l-2 2v9l-1 6c-3 4-7 5-12 4l-1-5c1-2 4-3 2-5-1-2-3 0-5 0l-8 5-3 1-45 11-11 1-24 3-6-1-23 1-7-1h-46l-32-3h-30l-25 1h-24l-11 1-20-1c-12 0-25 0-37-4l-5-1c-5 0-10-3-14-6l-16-10c-2-2-6-1-9-1l-15-3h-10c-7 2-15 0-22 0l-21-3-4-2-9-4c-4-2-5-8-3-11 1-2 4-2 6-4l-1-5c0-4 1-6 6-7l13-2 9-2 9-2c2 0 2 0 4-3l-6-1-9-1h-20l-11-2-5-5c-2-2-2-5-3-7 5-3 11-5 17-6l24-6h4l9-2c-3-3-6-3-10-4l-15-1c-4 0-6-3-8-6-2-2-1-7 2-9 2-1 5-2 7-1 9 0 17-2 26-3l11-1 2-1v-1l-23-2h-5l-4-1c-6 2-13 1-20 1l-1 1c-2 0-4-1-4 2-1 2 2 2 3 3 0 0 1 0 0 0 1 5 2 10 1 14 0 4 1 8-2 12-3 3-6 3-9-1-2-2-3-4-1-7 1-3 0-6-1-9l-3-32c-1-3-1-6-6-7l-6-3c-4 5-5 11-6 16l-2 8c-1 3-4 4-7 4-4-1-6-3-6-7l-2-14v-6-7l-1-3c2-8-1-16-1-24l-2-19-1-18c-2-8 0-17-2-25-3-10 0-20-2-30l-1-18-1-15-3-7c5-7 7-7 17-3l-3-10-2-11-2-3-2-6-5-3 4-3-1-2-8-19v-3l-2-15c-1-2-2-4-5-5l-10-3-9-6c-2-1-3-3-1-5 1-2 3-2 5-1l10 5h1c1-4 4-7 8-8 6 0 8 5 11 9l10-1 24-1 9 1h16l10 2 18 1 2 1c4 2 9 1 14 2l9 2 2 3-2 2c-6 1-12 0-18-1l-13-1-13-1-3-1 2 4-2 3 2 1c8-2 16 0 24 0 7 0 13-1 20 1l24 1 9 2 3 4-8 2-39-1-34-2h-1l10 1 20 2 2 2-1 2-5 2c-9 0-19 0-28-2l-20-4h-3c-5-4-10-3-16-1h-2l3-4c-5-3-12-3-18-6l-1 1 2 6 1 1c1 2-2 5 2 6l7 1 10 1 27 4 28 2 8 2c2 6 1 7-4 6l-3-1c-9 0-18 1-27-1l-13-1-2 1-17 3 3 1 25 2h33l4 1c2 3 5 2 9 2l6 1c0 4-2 4-4 4-8 2-16 0-25 0l-21-1c-9-2-18 0-28-1l-5 1-1 2 9 16c1 3 2 3 4 3l9 1c6 1 11 0 17-1l28-3h5l7 1c2 0 3 1 3 3 0 1-1 2-3 2l-7 1-27 4-19 2-14 3 3 1h12l27 1h15l7 1 2 3-3 3h-4l-12 1 3 5c-2 4-4 6-9 6h-7c4 3 9 1 13 3l-1 5c-2 3-6 2-9 2l-3-1-21 3-13-1-3-1c-1-2-3-3-2-6 1-2 2-4 5-4h5v-2c0-3 1-4 4-4l8-1h3l6-1v-1l-3-1-19 1-5-1-10-3 7 35 4 1h37c5 0 10 2 15 4 0 3-2 3-4 3l-18 1c-3 0-5 0-7 2l-8 3h8l16-1 30-4 19-1 11-1 7 1c3 1 5 3 5 5l-3 7c-3 2-6 3-10 3l-18 2-4 2c-3 4-7 6-12 5l-16-1-40 1c5 3 8 6 13 5h15l12-1c7 0 15-2 22 4-2 4-3 9-9 10h-5-3l-11 1-19 4-8 1c3 2 7 2 10 2l24 1c4 0 9 1 13 4-1 2-3 3-6 3l-8 1h-42v4c0 4 1 4 4 4l11-1c3-1 6-1 9 3-2 3-6 4-10 5-3 2-7 2-10 3 1 3 2 2 4 2 4-1 8-1 12 1l5 3c3 3 6 2 9 1l8-1c2 0 4 0 4 2 1 3-1 3-2 4l-3 2h5l16-3 10-1c4 0 7 2 7 6s-3 6-7 7l-28 5c-7 1-15 2-22 5l3 1 14 1h31l3 7c1 4-1 8-6 8-4 0-7 2-11 4l-7 2c4 1 7 2 10 1 8 0 16 2 24 4l8 6c3 1 2 6-1 8-3 3-7 5-10 6l-14 2-4 1 3 2 7 2c6 1 8 6 9 10l-2 3c-2 2-5 4-9 4l-26 4-9 3a40 40 0 0015 2l18 3 10 3v5l-1 6c-1 2-3 4-6 5l-11 3-21 5c-3 1-5 2-7 6h6l36 3 28 6c4 1 8 1 12-2l5-2c14-4 28-5 41-8 9-2 18-1 26-1h13l25 3 21 2 19 2c10 1 19 4 28 4h13l2-3zm-170 23l-7-2c2 4 4 3 7 2-1 2 1 3 3 4l6 1c8 3 16 4 25 4l30 1c2 0 4 0 5-2l-3-2-38-3-28-3zM384 699c-1 0-3 0-3 2l1 7v26l2 20 2 24 4 26c1 6 3 13 2 19l1 1 3-6 3-11 2-17-3-2c-3-3-3-7 0-9 4-2 4-4 4-8l-1-7-7-2c-3-1-3-3-3-6l3-6 5-2-4-4c-2-2-2-4-2-7l2-6-3-1c-7-2-8-5-4-11v-6c-3-3-2-5-3-8l-1-6c-1-1 0-4-3-5-1 4 2 4 3 5zm303 263l-14-7-26-2-8-1-26-1c-4 0-8-1-12 2 4 3 9 2 13 2l44 7 20 2 9-2zm233-93c2-10 1-27-2-30-2 2-4 5-2 9l-1 3-2 4c-2 6-8 9-13 5l-3-3c-4 2-9 2-13 6l5 2 31 4zm-21-270v1l19 3 5 2c2 2 4 2 7 1 0-5 3-9 2-14l-33 7zM460 829c-6-2-12-2-18-1-6 0-12-2-18-1l1 8c12 0 24-4 35-6zm244 131c0 9 0 9 7 9l19-1 8-2v-1l-34-5zm-85-15l1-2-10-2-10-1h-19c-3 0-7-1-11 2l49 3zm269-130v2l15 3c1-3 3-5 0-8l-15 3zM420 581l-4-3-12-1-3 1c7 4 8 4 19 3zm489 205l1-7-12 3c4 3 7 5 11 4zm-472-65l1 1 20-1 2-1v-2l-23 3zm201 199c13 3 23 4 27 3l-27-3zm-95 25v1c7 1 7 1 8-3l-8 2zM430 581v-2c-2-1-4 0-6 2h6zm498 35c-3-1-3-1-6 1l6-1zM627 971c-2-1-4-2-6 0h6zm-1-26v-1h-3v1h3zM387 674h1v-3h-1v3zm206 277l-1 1h2l-1-1z"/>
  <path d="M425 544l-40 4h3c6 1 11 3 17 2h3c8-4 16-4 25-6l-5-1c-1-3 0-4 2-4l12-1c9-1 18-3 27 2h13l19 2h26c3 0 6-2 10-1l16 2c3 0 4 3 4 5l1 1c6-1 12 2 17 3l9 1-3 2v1c11-1 22 0 33-2l9 1 14-1 26-2c3 0 10 2 13 4l-10 2-20 2c-5 0-9 2-14 3l-14 1-9 1h-15c-2 0-3-1-2-4h-4l-14 1-5 1c-5 5-9 5-15 1-4-2-8-3-13-2-6 2-13 1-20 1h-11l-17-1h-36l-10-1-27-1-4 1c-4 1-7 1-10-1l-5-1c-9 1-18-1-27-3l-4-1c-3 0-4-1-5-3-1-3-3-3-5-3l-16 1c-7 2-15 2-22 0-4 0-7-2-8-6l-2-5 2-5 6-5c2-1 5 2 5 5 0 5 1 6 7 7h39c4 1 8-1 13-1l13 1h3c9-2 16 0 24 2l1 1zm121 4h-22c-2 0-5 1-6 3-3 4-3 4-7 3l-6-2c-3 0-6-2-8-1l-28 3 18 1 24 2h26l5-1c-5-2-10 0-12-4 5-4 11-2 16-4zM920 683c-3 4-6 5-9 5l-30 4-11 3c2 3 4 3 6 2l23-3 11-2c3 0 5 1 6 4l-7 4-13 3-24 5c-3 1-6 1-6 5l-2 2c-2 1-10 1-12-1s-3-5-1-8l3-4c-4-1-6-3-6-7 0-3 1-4 3-5l18-5 6-1 22-2h16l7 1zM870 548c9-6 19-6 29-7l1-2c2-5 4-7 10-6 8 2 17 2 26 2l19-1h2c2 1 4 1 5 3s-2 3-3 4c-7 2-13 4-20 4l-14 2-16 1h-6l-23 3h-3c-4 1-4 1-7-3zM910 567l-46-4c-10-1-20 0-29 2-5 0-7-1-8-5 0-3 2-7 6-7h1c7 2 14 1 20-2l5 1c7 2 13 3 20 3l16 1c7 1 15 1 22 5 1 1 3 1 2 3l-3 2-6 1zM869 730c3 3 6 6 11 5l7 4c-1 1-2 3-4 2l-17-1c-4-1-7-2-9-6s-1-7 1-11l3-1c11-4 23-7 34-7l20-2c3-1 5 0 8 3-3 3-7 4-11 5-13 1-25 3-38 6l-5 3zM628 574v-6c7-1 13-3 20-3l43-4c4 0 8 1 11 3l1 3-3 3h-20l-27 3-14 2c-4 1-7 1-11-1zM984 487l-18-4-13-2-22-2c-3 0-6-5-5-9 0-2 4-5 7-5l17 5 3 1c7-1 13 2 19 5l12 8v3zM431 526c0 3-2 5-5 4h-50l-19-1-9-1 6-3h7c8-3 15 0 23-1l7-1c6 0 13-1 19 1h2c4-1 8 0 12 2h7zM915 657c-2 3-4 5-7 5h-13l-6-2c-5-2-5-3-5-8 0-4 2-5 5-5l8 1 3 1c1 4 5 4 9 5l6 3zM483 613l-5 1v-1l5-1v1zM659 194l-8-3c-1-5 4-8 4-12 4 0 8-1 11 4 0 5-2 10-7 11zM703 291c-1 3-1 6-4 8-4 3-11 1-14-3v-3c1-3 3-6 6-8 3-1 6 0 9 2l3 4zM400 441c-4-1-7-1-9-4l-2-8 4-13c1-3 4-5 6-4s4 5 4 8l-1 3c0 2 0 4 3 5 4 1 4 8 1 10l-6 3zM438 442c2 2 4 5 4 8 1 2 0 4-3 5-2 0-4 0-6-2s-1-4 0-5l5-6zM412 349l-2 4-3 1c-3-3-6-2-9-3l-6-2c-3-2-3-4-3-7 1-3 2-5 5-5h9c2 0 3 1 3 4l-2 3 8 5zM597 320c1-2 4-2 7-3 2-1 5-1 7 2l5 2 1 8c-5 4-10 5-15 2-2-1-3-2-3-4l-2-7zM577 306l2-5 6 3c2 0 3 1 3 3s-3 4-5 4c-3-1-5-2-6-5zM589 303c1-2 3-2 4-1v4l-2-1-2-2zM350 289l3 4c0 3-2 3-4 3l-2-2 3-5z"/>
</svg>
