<?xml version="1.0" encoding="utf-8"?>
<svg xmlns="http://www.w3.org/2000/svg" viewBox="0 0 612 792">
  <path d="M487 343l-5-2h-4c-3-1-5 1-7 2l-1 1-4 3v2l1 3h-1l-5 3c-2 1-3 2-5 0h-1l-3-1c1-2 0-3-1-5h-4l-2-1-6 2-3 2-5 4-3 3-4 4-2 1v-3-5l1-2 3-1 7-5 4-2 5-5c3-2 4-5 3-9l1-1 9-5h1l3-2h1l4-3 1-4c1-2 1-2 3-2l5-3c2-2 2-5 0-6l-5-1-2-1v-1h2l6-3 10-8v-3l-2-1-3-1-6 2-7 2c0-3-1-4-3-3l-3-1c-2-2-4-2-5-1l-1 1c-3 1-4 4-6 6l-2 5-3 2c-2-1-4 0-5 1l-2 1c-2 2-4 4-4 6l-1 2-2 4c0 3-1 5-3 7l-8 9-2 4-3 1c-1 0-3-1-5 1v-3l3-3c3-2 5-4 6-7l1-3h-2l-2 1-5 5-7 8-2 2-2 3 1 4 1 1c-4 6-5 8-8 8l1-3 2-6c1-3 1-6 3-8l1-5 2-7c1-2 1-4 3-5 1 2 3 1 5 1l6-3 3 1c0 2 2 2 3 0 1-1 0-4-2-4l-6-1v-1l3-3 5-4 6-8 2-3v-3h-3l-1 1-3 4 1-4c1-3 3-5 5-6l2-3 2-2 4-4 2-3c0-2-1-3-3-2l-9 4h-1l1-3 2-6 6-15 5-7 1-2c4-3 5-6 7-10l-1-3-3-4h-1c-1-1-2-2-4-1l-4 1c-1-3-4-2-7-2l3-3 1-3 1-1v-2h-2l-2 1c0 2-1 2-3 2v-2c0-2 0-3 2-2 1 1 2 0 3-1l1-2-1-1h-1c-2 0-2-1-1-3l2-3 5-10 2-5c0-3-1-4-3-5-3 0-5 2-6 5l-4 8-4 5-8 12-4 8-3 4-3-1-2 3c0 2 0 3-2 4l-1 1-6 9-2 3c-2 4-4 8-4 13 0 2-1 4-3 5l-1 2-4 13-1 8-1 4-1 2-2 4-3 5v2l-3 4v-3-2l-1-7 1-5 4 1 2-4 1-11 2-12c0-2 0-2 2-2l1-2 2-4 5-12v-5l-1-2 3-7 2-6c0-3 1-6-1-9l3-2 1-2c0-1-1-2-2-1h-1v-1l4-6c2-3 4-5 4-9 1-1 0-3-1-3l-3-2h-3l1-1 4-4 7-6 1-2h-2l-3 2-7 5-3 2 1-7h4l4-1 4-3 5-2 3-2c-1-1-2-2-3-1h-4c-1 1-2 0-3-1l2-2 3-5 2-2 4-7v-6h-4-2-1l2-4 3-4c2-2 3-5 2-8v-3c-1-1-4-1-5 1l-1 1-4 7-3 6-2 5v-1l-1-3c-3-2-3-5-4-8v-1h1c1 3 3 4 6 3l2-3c0-2-1-4-3-5l-2-3-1-2-4-3-1-2c1-1 0-3-1-4l-5-2-4 3v4c2 1 3 2 4 5v2l2 2 2 5 1 6v1l-1-1-6-9-1-1-3-3-2-1c-2-1-3 0-4 2l1 5 1 1 3 5a79 79 0 003 9l2 5 2 5-2-1-7-4h-3v3l1 3 4 8a47 47 0 014 13l-1 2-1-1-7-4-4-1c-2 0-4 2-3 4l3 4 5 7 4 10-1 5-2 5v2l-5 6-2 4-3 3v-2l1-3 7-8 1-1v-2l-2-1-2 1c-4 4-6 8-8 13l-3 14-2 14-1 6-3-1-3-1c-5 0-11 0-16 2l-4 1c2-3 4-5 5-9l2 1c2 0 3 0 4-2l8-9 4-5v-5l-2-2h-3l-1 3c1 1 2 2 1 3l-3 4-4 4c-1 3-4 4-6 5l-2-6 2-1c3-1 5-4 7-6l1-2-3 1v-1l3-4 7-7 3-2 2-3 4-6-1-3-2-1-8 3h-1l1-3v-1l-1-1c-1 0-2 0-3 2l-2 6v1l-4 3 1-4 6-12 2-6 3-7-1-3-2-1-4 3-7 9c-1 2-2 4-5 4h-1v-4l1-8-1-6 1-9c1-2 0-4-2-4h-3c-3 1-5 4-5 6l-4 12v7l1 12c0 1 1 3-1 4l-1-2c-2-2-4-3-7-1h-1v8l1 2 5 9v5l-3-2c-1-2-2-2-4-2-2 1-2 2-2 4l1 3v6l-3 3c-2 3-4 6-4 10l-1 1-1-2v-2l-4-8c-1-2-2-3-1-5v-3c0-3-1-5-3-8-1-1-3-1-4 1l-3 3-1 2-1-1 1-6 2-12c0-4-1-6-4-5l-2-2c-1-2-2-5-1-8v-3-2-3l1-3 4 3 4-1-1-3v-1-2l4-8v-3l-1-2v-2l3-4c2-1 2-4 0-6l-1-1 2-2 2-2 1-2c2 0 2-2 3-3l-1-3h-10l-3 1-1 1 1-3c0-3 0-3 2-3s3 0 4-3l1-1 4-3h2l-1 1v2h2l5-5c-1-3-1-3-4-3h-3-1l1-1 3-3 6-3 3-4 1-2-1-2-12 4h-1l8-7-1-2c-2-2-3-2-5-1l-3 1-2 1-7 7c-1 1-2 2 0 4l-6 7c-2-1-2-3-4-3l-5 2 1 5v6l3 13c1 3 1 3-2 4-2 0-3 1-4 3l-1 2 1 7 2 10 1 9v2l1 10 3 9c1 3 1 5-1 7-1 2-3 4-3 7l-2 3-2-2-3-7a242 242 0 01-4-9l-2-13-1-9v-3l-2 3v6l1 8-1 4-1-2h-1l-2 3c-1 2 0 4 1 5l3 5h2v-3l5 9 4 7v6l2 4 2 1c0 2 2 2 3 1 1 0 2 0 2 2 1 2 3 3 5 2l5-6 1-3h2c1 2 0 4-1 5l-1 1-2 5-1 5 1 3c2 1 2 2 2 3l3 10 2 5 4 4c1 0 2 0 3-2l2-1c2 0 3-1 3-3l1-2 3-2 6-7c1-1 2-2 4-1s3 0 3-2c-1-2 0-2 1-3l2-1 1-1c2-2 4-2 5-2 1-1 2 0 2 2s-1 5-4 7l-7 3-1 2-7 5-3 2h-1c-1 3 0 3 2 4h5c2 1 4 0 5-1l5-4 4-1 4-2 6-1 7-2h3c1 0 3 0 4 2-1 3-4 4-6 5l-5 2-8 1-2 1-1 1-6 1-4 2-1 3-1 2-2-1h-7c-2 1-4 0-6-1h-9c-2-1-4 0-5 2l2 2 1 1 1 2v11l2 13 3 12 2 4c0 1 1 2 2 1l1-2-2-2-2-8-1-6c2 1 4 1 5-2v15l2 3c2 0 3-2 3-3l-1-4v-7-12-7c0-3 1-4 4-3l5 2 1 5v12l-1 5v10l1 5-3 9-2 4-1-2-3-2h-3v3h1l6 9 3 4 4 5v1c1 2 2 5 1 8l2 1c3-1 4-4 3-8l-1-4 1-2 2-9 2-10 1-4v-6l-1-2h-1c0-2 0-2 2-3l1-2-1-4v-4l1-8v-8l-1-1c0-2-1-3-3-4-1 1-2 2-1 4v20a49 49 0 01-6 8v-1-3l1-18v-1-7c-1-3 1-4 4-3l5-1 6-1 2 1 1 9v15c0 1 1 3 3 3l2 1 3 3 2 4 3 7 1 5c2 3 2 7 2 11v2l-2-3c-3-4-4-7-4-11l-1-3c0-1 0-2-2-2l-1-2c0-2-1-3-2-3-2 0-3 1-3 3v5l1 2-1 7-1 3v5l-2 4-2 1-1-5v-1c-1-2-4-1-4 0l-1 5 1 5 1 2 6 1c3-3 6-6 7-10l1-2c2 5 1 11 0 17h-3l-2 4v1l-2 1c-1-1-2 0-2 1l1 3 1 4-2 1v10l-1 11h-1v3l-1 1-1 5v1c1 1 2 2 3 1 2 0 3-1 3-2l1-5v-2l1-4v-7l1-2v9l-1 12v4 9l-1 11-1 9v9l1 3 1 6 1 2h3v-3l-1-1-1-4v-8l1-19 1-6v3l1 9v8l2 11v6l1 1h2l1-2-1-5-2-18v-3-5l-1-12 1-10v-8-10l1-2 5 8h-2l-2 2 1 4 3 8h-2l-1 1c-2 1-2 2-1 4v3l1 2v7l1 7 1 11 1 10v2l1 6 2 3 2-1-2-10v-10l-1-7-1-7 1-3 2 2c2 0 2 2 2 3l1 10v1l1 7 1 8v1l1 4h3v-5l-1-6v-2l-1-5v-9-3-5l1-2c1 4 3 6 6 7v8l1 3c-1 2 0 4 1 6l2 2 1-2v-16-5-2l1-7 1-2 1-2 1-5v-3l2-7 1 1-1 4-1 11-1 15 1 4 2 3-1 4v3l1 4c0 3 1 4 4 3v-1-14-10c0-2 0-2-2-2l-1-2 1-5c-1-4 1-7 1-11l1-8 1-5 1-8v-6-2-4-4l2-3 2-2 4-4 4-5 1-1v2l-1 6v7l-1 7c0 4 0 8-2 11v1l-2 7-1 3-1 5-2 8v2l-1 9v30l1 6 1 6-3 1h-6l-9 1-9 1-6 1-15 1-9 1-2-1v-3l-1-6-1-4v-5-11l1-16c0-3 0-6 2-8v-2c-1-2-4-2-6-1l-1 1v-5l2-9 2-6c1-2 2-4 1-6-2-1-2 0-3 1v2l-3 8-2 7-2 8v3l-2 1 3-10 2-9v-8-2l1-6v-4c-3 0-4 1-4 4l-2 3-1 1-1-2 3-5-2-4-1-1-4 1-1-6v-4l-1-4-1-4v-1c1-1 0-2-1-4v-2l-6-4-3-1c0-3-1-5-3-7l-2 4-1 8-1 3v2l-2 4v-1l1-10v-2-8l-2-12v-7-16l-1-9-1-3-3-7c-2-4-4-7-7-9-1-2-2-2-3 0l1 1c3 3 5 7 6 10l2 5c2 3 2 7 3 11v12l-2-5-3-6-3-1h-2v3c3 3 5 7 6 11l2 6c1 2 0 3-1 4v3l3 1c2 5 1 10 1 15l-1-1c-2 0-3 0-2 2v2h-4c-2 0-2-1-2-3l1-5-1-7c0-2-2-3-3-2-2 1-2 5-1 7 2 1 2 1 2 3l-1 3-1 4-1 2v4l-1 2v4l-1 6-1 7-3 17v6l1 2 1-2v-2l1-2v-2l1-7 3-15 3-10 1-4 1-2 2 5-1 7v8l-1 2v2l1 2 1-1 2-7 1-7 1-3 1 2 1 4 1 8-1 4c-1 0-2-2-3-1l-4 1c-3 1-3 1-3 4l-1 6v7l-1 15v7h-4v8l2 11 1 4 1 11v18l1 2h3l1-3-1-5v-4c1 2 1 5 4 4l1 3c-1 1 0 1 1 1 1 1 1 0 1-1v-2-6-2l1-3v-2-5-8-11l1-3v-5-7-12-5-1l-1-6v-9l1 3 1 2 2-1v-4l2-5 3-5 1-5v-1l1 1 1 4 1 3 1 3 4 9h-1c-2-1-4 0-4 2v4l1 7 1 7v19l1 5v5l-1 12 1 12v8l1 8-3-1-1-6-1-13v-3-10-13-11-11-1c1-2 0-4-1-6v-1h-2l-1 2v10l1 13-1 6v9l1 4v2l-1 7 1 10v8l1 5-31 1-1-3-1-12v-4-3-14-2l1-3-1-3v-4l-1-7v-1l3 1c0 1 1 2 2 1l2-2-2-6h-1l-2-2c-2 0-4 0-5 3l-1 2-1 1-1 4v1l1 10 1 8v16l-1 8v2l1 10h-5l1-3v-8l1-11-1-19-1-10 1-6-1-3v-2l-1-2v-2c-2-3-5-5-8-6-2 0-4 1-5 3l6 5c-2 0-3 2-5 1s-4-3-4-6l-1-7-1-6-2-2c-2 0-2 1-2 2v7c0 2 1 3-1 5l-1 2c-1 1 0 2 1 3l1 1 4 4c1 1 3 3 2 5v46l2 3 2 1 1-2v-18-5l-1-10v-5l1-5 2 3 1 6 1 21 1 7c1 3 2 5 4 5l-1 8-13 1-1-5-1-7v-6-12-11l-1-10v-6-3l-2-1c-2 0-4 2-4 4l2 12 1 7v34l1 3h-12l2-2-1-8h3v-2l-1-13-1-3v-11l-1-12v-3-10-5-1-5-4l-2-2h-2v-1l-1-17-1-6-1-9-1-7v-2h2c1-1 2-2 1-4l-2-6-3-8-2-6-3-10c2-1 2-1 1-3l-2-6-3-10-2-3-1-9-2-10-1-7v-6-5c3-1 4-1 5 1l4 8c1 6 2 12 1 18v1c-1 3 0 3 1 4 2 1 4-1 4-3v-5l4 2v2l-3 9v2l-2 6c-1 2 0 3 2 5l-1 2-2 7c-1 2 0 3 2 3l1-2c2-4 4-8 4-12l2-2 1 2 1 4 3 9 1 1 3 8 4 9 1 2h-1l-3-3-7-8c-1-1-3-2-4-1-2 0-2 0-2 2v3l2 4 1 4 2 6 5 9 1 2a453 453 0 000 6v5l-1 4 2 4 3 6 2 4 6 5 1 1 4 1 4 4 5 8 1 1 4 1 1-4-2-6c0-3-2-6-3-8l-1-1-2 1 1 3-1-2c-1-2-1-4-3-5l-2-1-3-1-1 4 1 1h-1c-4-2-7-6-9-10l-1-4v-4-2l1 2 5 8 3 2 2-4-5-7 2-1 1-3c-2-3-4-4-6-5-1 0-3 0-4-2l-2-4-5-12-2-7 1 1 3 3 8 10 3 3h2c1 0 3-1 2-2l-2-6-6-12-5-11v-3-1l2 3 2 4c2 3 4 4 7 3v6l2 5c2-2 2-5 2-7v-7-9-1c-1-2-2-4-4-4s-4-1-5-4l-6-9-1-2-1-2h-1l-1 2 1 3 3 7 2 6-5-6-4-9-1-3-1-3 1-4 3-6 3-9v-1l-2-2c-1-1-4 0-4 3l-1 3v3l-2 4v-4c1-2 2-4 1-6l1-2 1-4 1-7 1-9c1-3 0-4-2-4l-4 1-1-1v-19c-1-2 0-4-2-6l-2-2-3 3-1 6-2 7-1 11-1 10c0-2-1-3-2-3l-3-3c-2 0-2-2-3-3l-1-5v-1h1c2 1 2 1 3-1l-1-4 1-1c2-1 2-1 1-3l-1-1-1-6v-9l-1-3-2-1-2 1v16c-2-2-2-4-3-7 2-1 2-1 1-4l-2-6-1-15 2-15c0-2-1-3-3-4h-2l-4 3-5 11-1 3c-1-1-2-2-1-3 0-2 0-3-2-5l-1-2-1-6-1-8-1-6c-2-5-4-6-8-4l-2 3-2 9 1 8v4l-2-1-4-3c-1-2-3-3-6-3l-2 2v3l1 6 1 4 4 5 5 5 1 1-2 1c-2 2-3 5-2 6l4 6 7 7 5 2c3 1 6 3 10 3l-1 1c-2 1-4 4-3 6 1 5 3 9 7 10l6 2c1 0 2 0 3 2l1 1 4 3 1 3 1 7v9l2 9v5l2 9 1 3-1 3v3l1 3 4 10 1 2 2 6 2 6 1 4 2 9 1 2-1 1c-3 0-3 2-3 5a90 90 0 001 5l1 3 2 13 1 11-5 2-2 2v1l-4 6-2 1 1-5 3-6-2-1-4 5-3 7-2 1-1 1c0 2 2 4 3 4h3l2-1 2 2c0 2 0 4 3 4l1 9v10l1 4c0 2 0 3-2 4-3 2-3 5-1 7l1 2v9l1 5 1 11v4l-4-1-3-6c3 0 4-1 4-3v-1-6a28 28 0 00-10-12l-7-5c-3-1-4-3-6-5l-5-3-2-2-5-2c-3-1-6-1-9 1h-1c-2 0-2 1-2 3-1 1 0 2 1 3l5 4 8 8 3 4-1 2-2 4c0 3 1 5 4 6l5 1 4 2 5 4 3 2h1v1l-4-1c-3-1-4 1-6 2l-2 2-1 3c1 2 0 5-2 7l1 4v3l1 9 1 1v5l1 15 1 8v1a252 252 0 001 10v7l1 13 1 8v5l3 13 2 7c0 4 2 7 1 11v1l1 9 1 7v9l1 5 1 5v3l1 3v1l1 7 1 6c0 2 0 2-2 2l-4 1-2 3c0 2 1 2 2 3h5c2 0 3 1 2 2 0 2 2 3 1 5l1 5 1 4 1 4-1 2 2 2 1 2 1 3v5l-1 1 3 3 20 14h5l3 1 3 2h2l4 1 3 1 2-1h6l1-2 2-1 2 1 1-1 5 1 15 3h10l14-1 10-1 1-2-1-1h-3l-7 1h-8l-11 1-1-2h18l11-1h19l15-1h7l9-1h3l7-1h11l3-1h5l4-1 4-2 4-4 2-2 4-1c1 1 3 0 3-2h1c-3-1-3-5-2-7v-1l-1-7-2-19v-3c2-2 2-4 1-6l-1-3v-3l1-3v-4l-1-3 1-4v-9l2-12 1-12v-13l1-1v-7l1-10 1-6 1-1-2-3v-3l1-12v-1-11-5-5-12-8l2-12-1-5 1-9-1-7v-7-3l1-2-2-5 1-8v-5l1-10 1-2 3-3v1l3 3c2-1 3-1 3-3l1-2 4-3 1-1c1-3 4-4 6-6l1-3-2-2 5-4 5-5h1l2-2 1-3c-2-3-5-3-7-1l-3 3h-1l-4 2-6 3-5 3a72 72 0 00-8 11h-1v-9h2c1 1 2 0 3-1l4-6v-2h-2l-2 1-4 4h-1v-5-4c1-2 2-4 1-6l1-2 1-2v-1-2l-5-4c-1-1-2-1-2-3l2 1 11 1c4 1 9 2 13 1 2-1 3-1 3-3l3-1h10c1-1 4-1 4-4l2-1 4-1c3-1 7-1 10-3l1-1c2 0 3-1 4-3 2-3-1-7-3-7l-6-1h-1l4-1c2-1 3-2 2-4l1-4 2-1 2 1 2-2-1-4zm-14-49l2-1-2 1c0 2-1 2-2 2l2-2zm-46-97v2l-1-1 1-1zm-177 3l2 5c-2-1-2-3-2-5zm28-27l-2 7c-2-1-3-1-2-3l1-9v-3l2-2v1c-1 2 0 3 1 5v4zm3-23l3-1 1-1c0 2-1 2-2 3l-3 2-2 2c-2-1-1-2-1-3 1-3 1-3 4-2zm-8-20c2 0 3-1 5-3v-1 3l-2 10-1 5v2h-1l-1-4-2-8v-2c0-2 0-2 2-2zm-3 42v2h-1v-4l-1-9v-2l1-1h3v3l-2 11zm4 46v2l-2 4v1l-1 5-1 4c-2-3-2-7-1-10l1-4 3-6 1-1v5zm13 36l-2-8v-3c4 3 7 13 7 20-3-3-4-6-5-9zm17-11h-1 1zm0 9l2-4h1l1 1-4 3zm14-69v-3l3-6 1 4c2 10 1 19-1 29l-1 2v-3l-2-10v-13zm8 52c-1 1-2 2-1 4l-7 3-7 4c-2-2-2-4 0-6l2-3c0-2 1-2 2-2 2 0 3 0 4-2-3-4-4-9-6-14v-1c-3-2-3-5-4-8v-1c3 1 5 3 6 6v3c0 2 0 3 2 4l2 2c1 1 2 2 3 1l1-4-2-8 3 1h2c1-1 2-1 2-3l4-10 5-8 1-2 1-1v3l-2 4c-2 5-3 9-6 13l-4 7c-1 2 0 3 2 4s5 1 7-1l1-1c1-3 3-5 5-6l6-3 1-1-1 3-4 5h-1l-5 5-6 6-6 5v2zm-6 25v-2l3-1h2l-5 3zm-21 22l-1 6-2 8-1 5v2l-1-5v-5c-1-4 0-7 1-11l1-1h3v1zm24 42v2l-2 11v3l-1 5-1 5-4-5 1-4 2-4 3-8 1-2 1-3zm-7 2l2-4 3-6h1v2l-2 5-1 5-4 8-1 4-1 1v-2c0-5 1-9 3-13zm109-46h1l-2 2v-1l1-1zm12-50h1c2-1 2-1 3 1-1 2-4 2-6 0l2-1zm-9-3c1 0 2 0 1 1l-3 8-8 12-6 5-2 2-1-1 2-2 4-4c2-2 3-5 3-8 1-3 1-4-2-5a22 22 0 018-7c1-1 3-2 4-1zm-14 32l-2 1-1 2-6 4-1 1-7 5c0 1 0 0 0 0v-1l8-11 2-1 5 1 2-1zm-15-16c0-2 1-2 2-3l3-3 1-2 2-5 2-3 6-11a1292 1292 0 0110-16v2l-4 8-2 5c-1 2 0 4 3 5l1-1 3 4-2 1-8 6-8 8-6 8-3 4v-1-6zm-12 17l2-9 2-3 1-1 2-4 1 4-2 8-5 10c-1-2-2-3-1-5zm-7 23l1-9c1-2 1-4 3-5v1c0 3 1 3 2 3 3 0 3 1 5-1l-2-4 5-2 1-2c0-3 2-5 4-7l5-8 8-10 1-1v5l-7 10-7 10-6 10-8 13-1 2-3-3-1-2zm0 10l1 1-1 1v-2zm-15-7l1-2c1 2 1 2-1 2zm15-43c0 3-1 6-3 8h-1c1-3 1-7 3-10l1 2zm4-25l-1 6-3 8v-1l2-14v-1l1-1 1 1v2zm4-23h3c-1 5-4 9-7 12v-1l1-6 1-2c1 0 2-1 2-3zm16-44c0 3 0 3-2 5-1-2 1-3 2-5zm-9 7l1-1h4c0 3-5 10-9 12 0-4 1-8 4-11zm-7-33h1l1 6h-1l-2-5 1-1zm-9 14v-2l2 2 1 2 6 6 1 2 2 3v2c0 2 0 3-2 5v2h-1l-1-3c-3-3-4-8-6-12l-2-7zm-1 23v-1h1l3 4c0 2 2 2 3 2h1c1 1 2 1 1 3v3l-2 8-1 4-2-6-2-10-2-7zm-8 20l2 1 5 5 3 2c1 0 2 1 2 3v3l-1 8-1 1-4-12-6-11zm2 47l3-8-1-2v-3h1c1-3 1-3 3-2 1 1 2 2 1 3v4l-3 16-1 2-4-7 1-3zm3 13l-1 3-5 27-4-2c0-3 0-6 2-9v-1l3-8v-2h-3-1l-3 3-1 1h-1l1-2 7-16c2 2 2 6 6 6zm-18 7l3-20c2 1 4 3 6 2 1 1 0 2-1 3l-2 4c0 3-1 5-3 7l-2 6-1 2v-1-3zm-18 29c-5-1-9 1-14 1l-5-1 1-1 12-5 5-2 7-2c2 0 3-2 5-3l2-1-1 9h-1l-3-1h-1c-2-1-3 0-5 1l-1 2v2l-1 1zm7 91v-1-11-1l1-5-1-6-2-5-2-1c-2 1-2 1-2-2v-4h1a925 925 0 0012 15h2v-5-2l-1-9c-1-2-1-4-3-5l-2-5-5-12c0-2-1-4-3-4l-1-3v-4l-1-12 2-5 7 1v3l1 11-1 5c-1-2-3-2-5-2l-2 2 2 3c3 0 4 1 5 3l1 5 1 2 1 6 2 2 2-2v-6l-2-7v-5l-1-4v-10l1-3c3 0 4-4 3-6v-3-5-5c2 0 3-2 5-3l-1 6 1 4 2 1 1 3v2l-3 7-1 4-1 2-2 4 2 4h3v6c0 2 0 3 2 3v3l-1 2-1 2c-2 1-2 2-2 4s2 2 3 2 2 0 3 2l-1 3-4 4-2 1c-1 2-1 3 1 4l1 1-2 8-2 9-2 10v8l-2-1-6-3h-1zm23 48l-1-2v-5l1 1v6zm18-71v4c-2 1-1 4-2 6l-3 6-2 2v3c2 1 2 3 2 5v12l-1 4-1-2c-1-1-2-2-3-1h-3l1-4v-2l-3-6-3-4c-1-1-4-2-6-1-1 1-1 4 1 4 1 1 3 2 3 5l1 1 1 3-3 5v2l1 6 1 1 4 1 2-1v2l-2 6-2 2c-2 0-2 1-2 3l-1-1-1-2c-1-1-1-3-3-2h-2l-2 4-3-1-2-7h1c1 1 3 2 3 4l2 1 1-1c2-1 3-2 3-4l1-3-4-3-5-5-3-2-3-5v-5l2 2 4 5 2 4 4-2-3-6-1-4a108 108 0 012-17l1-6 4-12 5-9 4-5c3-3 7-5 9-9l1-1h-2l-8 6-2 2h-1l-4-5v-3l6-13 2-5c2-2 2-2 4 0l-1 2-7 15v4l1-2 2-4 9-18 4-6 2-2c2 1 3-1 4-3l7-8 1-1 2-2c0 4 3 4 4 6l-2 2-4 3-6 6 3 1 5-4 2-1 9-7 3-3v-1c0-3-2-5-4-3h-3l1-1 6-5 7-7c2-1 2-2 1-3l-3-1c-2 1-4 1-5 3h-2l1-2c5-6 10-11 13-17l1-1c1-2 1-2 3-1h1c2 0 2 1 2 3l-2 6-5 11-2 3v2l-1 3-3 5-1 5-1 1-2 5-5 7v3l1 2-2 4c-1 1 0 3 2 3 1 1 2 0 3-1l3-2v1l-5 5-2 3-1 1-4 4-4 3 1-4 4-13 3-9-1-1-1 1-5 13-4 12-1 2c-2-2-4-1-6-1l-3 1-5 4-4 6v4l1 6 2 3 1 4v4zm4-5v-1l-3-8c-1-3-1-6 1-8v-1l3-4c2-1 4 0 6 1l1 2-4 9-1 3-2 6-1 1zm-106 13v-1l1 1h-1zm0 52v23l-1 6v9l-1 10-1-4v-9l-2-11v-11-6l-1-13 1-3v-5-1l1-8 1-2 1 2v7a56 56 0 012 15v1zm-46-85h-1v-3l1 3zm-23-24l1 1-1-1zm-4-19l-1-1v-1l1 1v1zm-5-37l1-10 1-1h1l1 5 1 9v17l-1 5-1 2-1-2-2-5v-2h1c2-1 2-2 2-4l-2-5-1-9zm-28-50c1-3 1-7 4-9v1l-1 11v1h-4l1-4zm3 30l-1-1 1 1zm-8-17l4 6 2 7-1 1-10-19 5 5zm5 23h-1v-1l1 1zm-19-61l1-2h1l1 8v1l1 6 1 4-4 4-1-1 1-1c1 0 2-2 1-3l-2-7v-9zm-11 23c-2-2-2-5-1-7l5 5 2 3c1 3 3 4 5 6l4 3c-2 2-4 2-6 1l-9-11zm16 29c-4-2-8-5-10-10l1-1 6 2 4 3c1 1 2 0 4-1h1l6 10c-5 0-8-1-12-3zm14 20c-2-1-2-2-2-5l3 1h3l2 1 3 4c-3 1-6 1-9-1zm261 171l-2 1v-1h2zm-13 13l3-4 1-1 4 1-2 3-4 5h-2v-4zm5-79l-4 3-4 2h-2l4-6 2-3 3-1 3 1h1l-3 4zm17-42l3-6 4-3 1 1 1 2c-2 4-5 7-9 8v-2zm-2 17l3-4 1-1 6-3v-1h11l1 1-2 1-4 1-4 2-6 2-7 3 1-1zm-1 8c-1 1-6 4-9 4h1l4-6c1-2 2-2 3 0l1 2zm-13-2l2-3-1-3v-5l1-2c1-3 3-4 5-5h1l4 3c-2 7-7 12-12 16v-1zm-14 15l3-6v-1l7-6h3l-12 15-1-2zm-4 2v1l-1-1h1zm-12 25v-8l2-12v-4l3-1v2l-1 5v2l-1 6v3l-1 5c0 2 1 4 3 4l2-1v-6-3-3l1-2v-2l2-8c1 2 3 3 3 6l1 2v15l-2 1-8 5-2 2-1 1c-1 1-2 0-2-2l1-7zm-2 19h3l6-9h1l-1 4 3 4-1 2-1 2-3 1-2-1c-2-2-3-2-6-1l1-2zm-1 21l4-11v-1h1v1 17l-1 1v11l-1 12-1 9-1 5v2h-1v-1l-2-8-1-8v-7l1-10 2-12zm-9 24l1-14 2-11 1-1c-1-3 1-5 1-7l2-2v3l-2 8-1 6-1 6v13l1 12 2 7c0 2 1 3 3 4l1 2-1 3-1 2h-5l-2-2-1-15v-14zm-66-17c1 1 1 1-1 4l1-4zm-6 52v1l3 1v-2-3-5a256 256 0 00-1-13v-15c0-3 0-5 2-7l2-2v4l1 5v24l1 11 1 4-7 1h-4c-2 0-2 0-3-2v-5l-1-16 1-13v-5c2 1 2 1 2 3l1 9v10l1 10 1 5zm-5-67c1 0 2 0 2-2v-5l1-2 2 4v5l-1 5c0 4-1 7-3 11v2l-1-1v-2l1-9c0-1 0-2-2-3v-1l1-2zm-4-15l1 2-2 13 1 2-1 5v14l1 7v1l-3 5v-1-11-11-9l-1-9 1-6 1-1 2-1zm-3 78v-10-1-11l1-4 1-1 1 18 1 18-3-1v-3l-1-4v-1zm0-78h0zm-3-28l1 3 1 4 1 1v10c-3-4-5-15-3-18zm-58 59c1-2 3-2 5-2l-1 4-4-2zm5 39v-4l-1-8-1-12v-6l1 1 1 8v2a27 27 0 001 9v11l-1-1zm-41-64l1-1 3-1v5l1 8 1 9 1 9-1 6 1 1v3l-1 1c-2 2-2 3-2 5v9 10l1 4 2 4 1 2 1 8-6-1-2-1v-6l-1-6 1-6v-5-9-8a18273 18273 0 01-2-31c0-1 0-3-2-4l3-5zm-34 52v-1l-3-3-3-4v-4h2l6 4 4 4 2 2c-2 1-5 1-4 5l-4-3zm11 16c-1-2-4-2-6-3h-1c-2-1-2-2-2-3h3l3 1h3l3-3 1-5h2l5 8 1 2v6h-6l-6-3zm12 159l-1-1v-1l1 2zm38 97h-1v-1h1v1zm6 2l-4-1h4v1zm1 1c2-1 3-1 4 1l-4-1zm41 3zm132-244l-3 3 1 3v8c0 3 0 3-2 3h-4l-6 1-2 2 2 2h13c-2 4 0 8-1 12l-10 2-6 1-2 2h17l2 1-1 5v1c0 5 0 5-3 5l-10 1h-16l3 2 11 2h1l11-1h2l1 2v4c-1 3 1 6-1 9-4 2-9 2-15 2l-8-1-7-2c-1 1 0 2 1 2l12 5 15 1h1l1 2v5l-1 6-3 1-15 2-17-3h-1l-11-4h-2l-2 1 1 1 4 2 12 4c5 2 9 3 14 3h19c1-1 2 0 3 1v9c0 2 0 2-2 2l-2 1-2 1-7 1h-9l-9-1-9-1-10-2-7-2h-3l-1 1 1 1 5 2 15 4 14 2h25v3l-1 3c-2 0-3 1-4 3-1 3-4 5-6 6l-12 3h-16c-4 1-8-1-12-1l-5-1-2-1-7-2-1 1v1l5 2 6 1c3 2 7 2 11 3l9 1h12l3-1 9-1 4-1 2 1v10l-4 1-2 1-9 2h-9l-12-1-14-1-14-1-20-3h-5v1l3 2h6l13 3 9 1 6 1 10 1 14 1h19l6 1 3-1v1 11c0 2-1 2-2 3h-4l-10 1h-29l-7-1h-8c-2-1-4-2-6-1-1-2-3-1-5-1l-9-1h-1l-10-2-5-1-3 1v1l1 1 8 1 5 1 9 2h1a165 165 0 0022 3 159 159 0 0020 1h4l6 1h1l8-1h9l3 1v7l-2 1-9 2-9 1-9 1h-26l-10-1-17-2-6-1h-3l3 3a247 247 0 0028 5h21l9-1h8l11-1 10 1-1 6c0 2 1 3 2 3 2 1 2 3 2 5h-1c-1-2-2-2-3-2l-4 1c-1 2-3 2-4 2l-14 1h-9l-14-1h-3l-6-1-23-4-6-1h-1l-10-2-11-2-1 1 1 2h2l18 4 8 2 1 1 16 2h2l4 1h1l16 1 10 1h17l9 1 4-2 1-2 1 2v4l-1 1-2 2-1 1h-2c-2-2-3-1-5-1h-3l-8 1h-4-5c-2 2-4 1-6 1l-2 1-11 1-15 1-10 1-15-1h-4l-11-2-3-1-9-3-5-2-3 1 4 2 5 2 4 2 8 2 3 1 1 1 8 1h4l11 1 13-1h2l14-1 15-1 6-1h16l2 1-2 1h-8c-2 0-3 2-4 4l1 2-3 1-7 2-6 1-6-1-5 1h-1l-2 2-24 2h-58c-2 0-3 0-3 3v1h-3l-8-2-3-1c0-2 0-2-2-2v1h-1c-2 0-4 0-6-2h-1l-1-1c-2 1-3 0-4-1l-10-2-4-1 3-2h6c1-2 3-1 4-1l2-4h-3l-10-1h-7-1-1l1 4 1 1 3 3h-3c-2-1-5-1-7-3l-1-1c-2-1-3-2-3-4l1-1-2-1h1c1-2 1-2-1-3l-1-3 3 2c1 0 3 0 4-2h1l9-1h6l5-1 8-1 1-1v-2l-2-1h-6-1l-16 1-5-1-1-1-5-2-1-2-1-4-2-2h-2v-5l3 3 3 1h24l7-2h2l6-1 7-1h2c1 0 2-2 1-3v-1h-2l-12 1-8 1c-5 1-10 2-15 1l-8-1-1-1-1-1-2-1c-1-2-2-2-4-2-2 1-3 0-4-2v-4h1c1 2 3 2 5 2l11 2h8l9-1 9-1h8l7-2 11-2h2v-2l-1-1-1 1c-6-1-11 1-17 1l-13 1-7 1-4-1-2 1h-11l-8-3c-2 0-4-1-5-4l-1-1c-2-1-2-1-2-3h3c2 1 4 2 6 1l10-1 8-1h8l11-1h10l8 1 8-1c2 0 3 0 4-2h-1l-12-1h-7l3-1 12-3 11-3 4-2 2-1 3-3h-4l-8 2-1 1-5 1-1 1h-2l-10 3h-7l-6 2h-17c-7 0-14 0-20-2h-2l-2-4-2-2-1-2-1-4-1-2-1-1v-1c-2-1-2-3-3-5h6l5 1 11 1 12 2h12l4 1h16l4-1h15l11-1 12-2 4-1c0-2-1-2-2-2l-5 1-16 1-11 1h-28l-1-1h-1l-17-1-16-3a300 300 0 01-10-3c-1-2-4-2-6-1l-2 1c-2-3-2-7-2-10l5-1h2l8 1h8l15 2h4l12 1h25l14-1 6-1h1l7-1 5-1 1-1-1-1h-11l-9 1-8 1h-38l-7-1h-4l-13-3-9-1h-5l-3-1c-2-2-4-2-6-1h-1l-1-6 1-1 6 2h4l12 2 14 1h20l11-1 6-1 7-1 7-1 18-2 11-2h4l7-1 9-1 5-1 1-1c-2-1-3-2-5-1l-12 1h-2l-12 2-11 1-8 1-6 1-8 1-18 2h-30l-8-1-5-1h-6l-8-3-2-1 1-3c0-2 0-3-2-4h-3v-2l5-1h3l5 1 5 1 10 1h15l11-1 18-2h11l16-2 6-1 7-1 8-1 9-1 11-1 8-1 6-1h4l6-1c-1-2-2-2-3-2h-8l-14 2-15 2h-5l-10 1-4 1-13 1h-6l-5 1-11 1h-7l-8 1-4 1h-20-1c-2 1-5 0-8-1l-8-2h-2l-7-4-3-1h-1c-2 0-3 0-3-3l-1-9 14 1h2l9 1h31l12 1 12-1 9 1 19-1 19-1 10-1h6l15-2 9-1c3 0 5 0 8-2l-4-1-14 2h-7l-9 1-11 1-7 1h-12l-19 1-7-1h-51l-5-1h-9l-7-1-11-2c-2-1-3-2-3-5v-7-6l7 3 5 1 4 1c3 2 5 2 8 2l6 1 6 1 12 2h9l12 1h34l10-1h4l17-1 8-1h7l7-1h10l5-1h9l2-2-6-1-12 1-12 1h-13l-8 1h-4l-16 1h-37a763 763 0 01-26-2l-9-1-7-1-6-1-8-2-5-2-4-4-6-3-2-1-1-11 12 3 15 1h15l15 1h59l10-1h10l15-1 12-1h6l16-1 5-1 5-1v-1h-11l-18 1-4 1h-11l-13 1h-20l-13 1h-30l-11-1h-29l-13-2-11-1-7-2c0-4-1-4-5-4l-1-5 8 1 6 1h3l5 1h8l19 1h35l7-1h18l14-1h19l13-1h1l17-1 10-1h7l15-1 1-1-3-1h-9l-14 1h-10-1l-5 1-25 1h-20l-8 1h-19l-18 1h-28l-3-1h-10l-7-1h-6l-13-2-1-1-6-1 1-5c1-2 2-3 4-3h2l5 1 1 1c3-1 4 1 6 3l2 1c1 1 2 0 3-1 0-2 1-2 3-2l5 2h17l9-1h17l7-1h8l10-1 7-1h10l2 1c1 2 2 2 3 0l2-1 15-1h9l10-1h8a360 360 0 0026-3l9-2 8-1h20c3 2 3 6 3 8zm1-55l-1 1 1 1v2l-1 3v4l1 4v4l-1 3v7l-2 10-4 1h-4c-3 1-3 0-3-3v-4l3-24 1-4v-1-8l1-13v-3l2-2v16l-1 9v4l-1 8-1 2 1 5 2-2 1-9 1-10 1-14 1-4v-7-2l3 1v23 2zm1-34l-3 2-1-3 4 1zm9-12c-5 0-9 0-13-2l7-4h3l3 1v5zm14-19l-2 5h-4c2-2 3-5 6-5zm-10 20c3-2 5-2 8 1l-8-1zm12-5l-11-4 3-1 13-2 1 1c-1 3 1 5 2 7h2c-3 1-7 1-10-1zm33-9h3c-3 4-13 6-16 4l2-2 11-2zM360 403c1 0 1 0 0 0h0zM231 719l-1-1 1 1zM473 294zM412 260zM40 793h2-2z"/>
  <path d="M135 285l-5 1h-3l-7 1h-8c-2-1-4-5-2-7l3-2 5-2 4-1c0-2-1-3-2-3l-3-4-4-3-4-3c-2-1-1-4-1-6v-1l6 1 11 8 6 3 9 3h10c3 1 5 0 8-1l1-1c-1-2-3-2-4-2l-7-1c-2-1-4-4-3-6l2-1h4l7 1c3 0 6 0 9 3h1l4 4 1 2c2 2 3 6 2 9h-2l1 2 6 10 5 10 4 11-1 2v1l-1 2-4 1-8-3c-4-1-7-1-9-5l-1-3c1-1 0-2-1-3l-1-1c-1-2-1-2-3-1l-8 3c-3 1-5 0-7-3v-1c0-3 3-5 4-8h-2l-7 3-8 4-5-1s-2-1-1-3l2-4 7-4v-1zm22-3c1-1 2-2 4-1 2 0 3 0 2 3-1 2 0 3 1 4l3 2c1 1 3 2 5 1l2 2 1 2 6 9v2c1 1 0 2-1 2l-1-1v-1l-4-4-2 3-1 1 1 2 6 1 2 1 6 1-4-5-1-2-4-9-5-9-1-2c0-2-2-3-3-4l-1-2-5-5-2-1c-3 1-5 2-5 5v2l1 3zm-4 15v1l3-1 7-2 1-2-3-3c-1 2-3 4-5 4l-2 1-1 2zm-32-31c5 6 11 8 18 9l-18-9zm48 6l-5-7-2 1 1 2 5 3 1 1zm-40 9l-2-1h-6l-2 2c4 0 7 1 10-1zm20-4l-6-1 1 3 3-1s2 1 2-1zm1 6c0 1 0 2 2 2l-2-2zm-8 6l-2 1 2-1zM270 256l-6-6c-4-4-7-8-9-13l-6-13v-3l-1-2-1 2-2 11v3l-1 1h1v-1l3-1c2 0 3 1 2 3l-2 7v5l2-2c3-2 5-1 6 3v6l-2 10-2 8-1 10v4l-3-1-2-4a142 142 0 003-15l1-8 1-5-1-1-2 5-2 7-3 3-3-2-1-2v-1c2-2 2-5 2-8l2-12v-2l-2 10c0 1 0 3-2 3l-3-1v-4l2-6 3-12 1-9 1-8c-2 0-2 2-2 3l-3 7-1 3c-2 1-4 1-5-1l-1-5-1-3v8c-1 2 1 4 1 7-2 1-4 0-5-1l-1-2v-10l1-2v-3l1-19 1-9 1-3 1-4c0-3 0-3 2-3h2l1-4 3-2c2 0 3 1 4 3v5l1 3h1l-1 3-1 5c0 3 0 6-2 8l-2-3v1l-3 15v2l1-2c0-2 1-2 3-1l2-2c3-3 5-1 6 2l1 3h2l1 4 2 8 3 7 4 7 5 6 3 4 1 1c3 1 4 3 5 5 1 3 1 6-1 8l-3-8zm-33-73l-3 6-1 5-2 16 1 2 5-29zM200 131l-2-2-7-6-4-4-1-1c-1-3-1-4 1-6l-3-4-2-2-2-2-3-5-1-3c3-2 6-1 8 1l7 5 5 3 1 1 1 2 4 5 4 8 2 3 1 3 5 11 1 4 3 10 1 9 1 6-2 1 2 2 2 2 1 3 1 3 1 3-3 1h-1l-4-4-5-6-2-2c-3-3-5-6-5-10-1-2-1-4 1-6v-3l-1-2-3-4-1-1-3-4-3-2v-3c2-3 2-3 5-4zm17 36v-1a1158 1158 0 01-4-11l-2 1-1 2v4l1 2c0 2 2 3 3 3h3zm-14-28l1 2 3 3c1 2 2 2 4 1l-1-6-2-1h-3l-2 1zm0-12c0-3-3-5-6-5l6 5zm-15-22c0 1 1 2 2 1l-2-1zM504 590v-2-1l1-10v-8-2c0-3 0-5 3-6l1-1c1-2 2-2 4-1 2 0 3 1 3 4v5l1 8 1 3v4l2 7 2 8 1 1v5c-1 2-4 2-5 0l-1-5-1-5-2-12-1-1v-3-1l-1-5-1-1-1 1v6l-2 8v17h-4-1c-1-2-2-3-4-3l-1-3c1-2 0-4-1-6l-1-5-2-7v-2l-2-2v17l1 3v2 4l-1 1-4 1-2-3v-7h1v-6l1-3v-10-1l-1-5c0-2 1-5-1-7 0-1 1-4 3-5 1-1 2-1 4 1v2l2 3c2 1 2 3 2 5l1 3v3l1 2 2 11 2 4h1zM181 336l-1-2-3-8-1-5c0-3 1-4 4-4h2l8 4 2 2 1 3-3 1-4-2-3-1v4l2 5 6 9 2 2 3 2h2c2 0 2 1 1 2-1 2-4 3-6 1h-4l1 3 1 1c1 2 4 3 6 2 2 0 4-1 6 1l-2 3-2 1h-8c-3-1-5-3-7-6l-1-1-13-1h-8c-1 0-4-1-4-3v-2l3-3h-2c-4 0-8-2-11-4l-3-1c-1-1-2-3-1-5 2-2 3-3 5-3l2-1 5-1h5l6 3 9 3h2l3 1zm-26-1l1 3 1 1 3 1 13-1-2-1h-2l-9-4-5 1zm32 12l-7-6-2 2-1 1v2l-3 1-2-1-3 1 9 2 5-1c1-1 2-2 4-1z"/>
  <path d="M270 256l-2 8v5l2 2c3 1 3 2 2 4-2 2-2 3 0 5l1 5-1 1c-2 0-2 1-3 2-3 5-4 9-5 14l-3 14-2 9-2 9-2 9-3 9c0 2-3 2-4 1-2 0-3-2-3-4l-1-11v-2c-1-4 1-7 1-10l1-2 2 2v9h1l1-3 4-14 2-5 2-6-1-1-4 2c-2 2-4 0-5-3v-4-1l3-9 1-3 2-6 3-4 2-5c1-1 2-2 3-1l1 2-2 6-2 7-1 1-3 9-1 2v2l1-1 4-6 3-6 1-2v-5l2-3 1-3c-2-1-2-3-2-5v-6l1-6c1-2 1-2 3-2h2zm-20 92l1-4 2-7 2-6 1-2c-1-2 0-4 1-6v-1l-7 23v3zm8-44h1-1zM515 509l-1 1c-1 2-2 2-4 1l-2 1h-5c-2-1-3-2-3-4l-2-6 1-4-1-9v-3-3l1-3-1-6 1-1c1-2 3-2 4-1l1 3v7l-1 7 1 4-1 2 1 3v4c1 3 3 4 6 4l3 1 2 1v-2l-2-9v-1-3-1l1-7v-2l1-2 2-4h4l5 1 1 3v1l2 7 1 2 2 7-1 6-3 6c-1 2-2 4-5 5h-2l-1-1c-3 0-4-2-5-4v-1zm7-23c-2 0-3 1-3 3v10l1 8v1h3l2-5v-4-2-3l-3-8zM445 471c-2-1-2 0-2 2v22 13l1 2c1 1 2 4 1 6l-1 1-1 1c-2 1-4 0-5-3v-7l-1-5a182 182 0 011-11v-7-11-2-3-3-5c0-2 0-4-3-5-1 0-2-3-1-4l4-5 7-2c3-1 5 1 8 1l1 2 1 3c3 3 3 7 1 10l-6 7c-1 3-3 2-5 3zm-2-18v13l5-5c1-1 2-3 1-5v-2c-3-3-3-3-6-1zM437 607l-5 4-1-1c-2-1-2-3-2-5l1-5-1-13 1-1v-10-4l-1-2v-5l2-5v-2-3c2-2 1-5 1-8v-3l2-2c2-1 4-2 6-1h7c3 0 4 2 4 5 1 2 0 4-1 6l-3 6-3 4-3 3-5 3-1 3v16 11l1 5 1 4zm8-59c-2-1-5 0-7 1l-1 5v3 4c2 0 3-3 4-4 2-3 4-5 4-9zM490 486l1 2v3 2l1 6 1 3 2 6v3c1 1 0 2-1 3l-3-1-2-7v-1l-1-3-2-4-2-7-1-2-2 1-1 2 1 2 1 9 1 3 2 3-3 3c-2 1-5 0-5-3l-1-2v-1l1-5-2-3c2-1 2-2 1-3 0-2 0-3-2-4v-3-4l-1-6v-1l1-3 3-2h4l5-1h1l6 2c2 1 2 2 2 3 0 4-1 7-3 8l-2 2zm0-8c-2-2-4-1-6 0l-3 2c-2 1-2 2-2 4h4c2-1 5-2 7-6zM563 514c-2 3-3 3-5 2l-4-3-5-8-2-2v-1l-5-5h-2l-1 3 1 9 2 3 1 2-1 3-2 1c-2-1-3-3-3-5l-2-10v-2-2l-1-5v-2-2l-1-3-3-6 2-4 5-1h8l2 2 2 1 4 4c1 1 1 3-1 4l-5 4v2l3 5 3 4 2 5c2 0 3 3 4 3l4 4zm-24-23l8-7c-4-1-4-1-9 2v2l1 3zM463 578l1 15-1 3h-3l-2-1v-8-2c0-2 0-3-2-3s-3 1-4 3l-2 6v6l2 4v2h-1c0 1 1 3-1 3l-3 1c-2-1-3-3-3-6v-6-2l1-3v-1c2-2 2-4 1-7v-3l1-5v-2l3-11c0-3 3-4 5-3l2 1 1 2 2 5 1 2 1 5v3l1 2zm-10-2l5 1-1-1v-3l-1-3c0-1 0-2-2-2-1 1-2 3-1 5v3z"/>
  <path d="M451 515v-5l1-7v-2l1-5v-3l1-4v-1-9l-1-4 2-2h8l1 3v1l1 1 1 5 2 4c1 3 2 7 1 11l2 9v1c2 2 1 4 0 7h-2c-1-1-3-2-3-4l-1-1v-8-2c0-2 0-3-2-2h-4c-1 0-2 1-2 3l-1 7 1 4c1 2 0 4-1 4-2 1-4 1-5-1zm8-31v3c-1 2-1 4 1 5h3v-2-2l-2-2-2-2zM215 194l1-1c1-2 3-1 4 1l1 5 1 9v3 6l1 6 1 10 1 2-1 1h-2l-2-6-3-9v-4-11-2l-1-3-4-3-6-8-1-2-3-2-5-6-4-4c-2-1-2-4 1-5 2-1 5-1 7 1l8 4 4 3 1 2-1 2h-3c-1-2-3-3-6-4l-2-1 1 1 5 6 5 6 2 3zM272 303c2-2 4-1 4 0 1 1 0 2-1 3s-2 0-3-2l-1 3c-1 3-1 7-3 10l-1 4-3 10-1 6v1l-2 9-1 5-2 12v6l1 5v2h-2l-2-3v-13l2-11 3-12 1-7 2-10 1-2 1-4 1-6 1-9v-5c0-2 1-2 2-2l4 2v5l-1 3zM470 558h4l2 3v5l-1 4-1 7v19l4 2h4c2 0 2 2 2 3l-1 2-1 1h-11l-4-5v-2-1c2-3 1-6 2-9v-4-3l1-8v-1l-1-9 1-3v-1zM167 400l-1-5v-4c0-2 2-2 3-2h2l5-2 6-2h3l5 2c2 0 3 0 4 2v3c-1 1-3 2-6 1l-1-1c-2-2-4-2-7-1l1 1 2 1-1 3-1 1-6 3-2 1h-4l-2-1zm9-7h-3v2h1l2-2z"/>
  <path d="M263 396c-2 0-3-1-3-3v-11l2-14 1-4 1-7 2-9 1-11v-1l3-6 2-1 1 2-2 10-1 2-1 4v4l-4 16-2 13-1 8 1 4v4zM189 402l3 2h4c1-1 2 0 3 1v2c-1 2-2 3-4 3s-5 0-7-2l-5 5-5 2c-1-1-2-3-1-4a57 57 0 000-5l5-5 2-2 1-1c3-1 5 0 4 3v1zM207 357l-4-5-2-3-2-8-2-4-2-7-2-11-1-5v-7-7l2-4v3l1 11 1 9 2 7 2 6v1l4 13 2 9 1 2zM228 397l-2-1v-2l-2-10-1-2-1-4-2-7c-2-3-1-6-1-9l2-1c0-2 2-2 3-2 1 1 2 3 1 4v9l1 3 1 4 1 4 1 5 1 4c0 3 0 3-2 5zM232 234v9l1 7 3 16 1 4 3 13 1 6v2l-2 2-2-2-1-7-1-6a579 579 0 01-3-18l-1-8v-3-6c-1-3-1-6 1-9zM189 284l-2-1-6-8-3-4c-2-1-1-2 0-4l2-2 2 2a442 442 0 0010 15l-3 2zM179 359c2-2 4-2 5-1l1 1-1 1c-1 1-2 2-3 1l-2-2zM200 671h-1v-1l1 1zM266 709h2c-1 2-1 2-2 0zM263 710l1-1v1h-1zM278 708v0zM373 336h-1c-2 0-3-1-3-3 1-3 4-5 7-4l2 1 1 8c-1 1 0 1 1 1 1 1 2 1 2 3l-2 2-1 1-1 2v9l-1 8-1 4-1 2c-1 1-2 2-3 1l-1-4 2-5 1-7v-2-10c1-2 0-5-1-7zM384 310l-3-1c-2-1-2-3-1-4h1l11-8v-1c1-2 3-2 5-3h1v2l-4 4-3 3-2 1c-1 1-2 3-1 5l-1 1-3 1z"/>
</svg>
