<?xml version="1.0" encoding="UTF-8" standalone="no"?>
<svg xmlns="http://www.w3.org/2000/svg" height="251.1" width="260.3">
  <path d="M259 72l-3-1-2-1c-2-2-5-3-8-3l-6-2h-9l-6 1h-1l3-2 2-1 4-4 3-3 1-2-1-2h-3l-1-1h-4l-2-1-1-1-2-1-4-1-3-1-3-1-2-1h-1c1-2 2-3 1-5l-2-3-4-2v-5c2-3 1-6 1-10l-1-4-1-2V9 5l-4-1-2 2-4 1-5 2-3 2-5 4-2 2-4 3-2 2-1 2-1 1-1-1-1-1-4-1-4 1c-2-2-3-3-5-3s-4-1-5 1h-1l-2 1v2l1 1h-1c-2-1-4 0-5 2l-2 1v-1-1l-2-4-3-4-3-4-3-4-1-1c-1-1-4-1-5-3-2 0-3-2-4-4l-1-2h-2l-1 1-2 3-1 3v1l-2 2-3 5c0 1 0 2-2 2v2l-1 5h1l1 3v2l1 1-2 3-2 4-1-1h-4l-3-1c-1 1-2 0-3-1h2l2-1v-4l-1-1v-1l-1-3-1-2-1-2-2-3-2-3c-1-1-2-2-3-1l-2-1h-2l-4 1h-4l-4 2-3 1h-1l-4 2-4 2-4 2-3 2-2 1-2 1-3 1-1 1-2 2v3l2 1h1l1 1 2 1 3 1c1 1 3 2 5 1l3 1h1l2 1h2-1v4h-3l-2 1-2 1-3 1-4 2-6 3-4 1h-1l-3 1v1l-2 1h-2l-1 2v3l2 1 1 2 5 1 3 2 4 3 2 1 3 3-1 1-1 1-1 1h-3c1-2 0-4-1-5l-2-2c-2-1-4-2-7-1h-1l-5 1-3 1-2 2-5 3-3 2-3 3-4 3-2 3-2 2-3 2 1 3c1 1 2 2 4 1h5l7 1 2 1 3 1h4l5 1h7l3-1h1l3-1h1l1-2 1-4v-1h1l2 2h1l3 4 1 1 2-1v-1l1 2v8l-1-3-1 1h-1l1 4 1 5 1 4 1 4 1 1v7l1 1-3 1-3 2-3 1-3 1h-1l-2 1h-1l-1-1v-4l-1-6h1v-1-2l1-5 1-3 2-2v1h4v-2h-4v-2l2-4v-2l1-4-1-4h-2l-1 6v3l-2 4v1l-2 5-2 4-1 3-1 3 1 3v9l1 3v3l3 3 2-1 1-1v-1l2-2 1-1 2-1h3l-1 1c-1 1-1 2 1 3 1 1 2 2 1 3v1l1 3-1 5 1 3-1 3v5l-1 2h-1l-4 2-1 1-5 1-1 1-4 1-3 1-4 2h-1l-4 2c-1 1-3 1-3 3l-4 5v1l-1 2-1 3v3l1 5 2 3 1 1 1 2 1 1 1 3 1 1 3 3 1 1 1 2 2 4 1 1 4-1v-1l1-1 3-5 3-3 1-1 1-2c3-9 8-17 10-26l-1-1h1l-2-5v1h-1c0-2-1-2-2-2l-4-1 2-1h4l1-1c3-1 4-3 6-5l1-4 1-4v-1l1-2v-2l2 1v3l1 1v3l1 3 1 3 2 7v1a21 21 0 006 6l2 1h6l8 1 2 1 4 1h7l-1 3v2l1 1v6 9l2 2 1 2v1l-1 1h-4l-2 2-1 1-1 4v6l1 5 2 3v1l1 3 2 2 2 5 3 3 3 3 1 1c1 0 2 0 3-2l1-1 1-2v-2l-1-4v-5-1h1v-3l2-2-1-2v-3-1l1-2 1-5-1-2c0-2-1-2-2-2l-1-1-2-1-1-2-1-3-1-1-1-6v-3-2-4l1-4 5-1 2-1c7-2 15 0 22 0h6l4-1h6a83 83 0 017-1l6-1h2l1-1h6a195 195 0 0111-1h2v-2-1-1-1-1-1-2-1c1-1 2-2 1-3v-2-3a143 143 0 002-12v-5-1l1 1h1l1-1v-1l-1-9v-1-4l-1-5 1-2 1-1 1-3v-3l1-4 2 1 2 1v2l3 4 2 2 3 1 2 2 1 2-1 2v2l-1 1v3l-1 6v2l1 4-1 1v9l2 1 2 1 1-1c-1-1 0-1 1-2l-1-3 1-1v-2-2l2-4v-2l1-3 1-3h3l1-3h1l3-4 2-2 3-2 1-2 2-2 2-2v-1l2-2 2-3v-1-2l1-2v-2l-1-4c1 0 0 0 0 0l-1-3-1-1-2-1h-1l-3-2h-3l4-2 3-1 2-2 4-2 2-2 3-3 2-1 2-2 1-1 1-1v-1l-1-2zM44 92l-2 1-2 1-8 1h-3v-1l-1-2h-3v-1l-2-2h-4-1l-1 3h-3l-3-1H7c0-2 1-2 2-3l1 1h2l2-2v-2l-1-1 3-3 3-3 2-1 2-2 2-1c3-2 6-3 9-2h1l4 2v4 5l1 2 2 2 3 3-1 2zm1-8l-1-1-1-1v-1h2v3zm3 5v1l-1-1 1-1v1zm2 88l2 3 1 4-1 5v2l-1 3v1l-1 2-4 6-5 6-2 3h-3a52 52 0 01-4-3l-1-1v-1h1c2 1 3 0 3-1l-2-3-2 1-1 1-1 1v-1l-1-2-2-2c-2-2-2-4-3-7l1-5h1l3-6a10 10 0 014-4l1 1 1 1h2l1-1h3c2 1 2 0 2-1l2-2h6zM215 48l3 1 3 2h1l1 1h-6l1-1-3-3zm-5-1l3 1 1 1c-1 1 0 2 1 3h-3l-5 1h-1v-1l2-5h2zm-3-8l-2 1h-2l-2 1v1l1 1h2v1l1 1v2h-2-2l1 2 1 1-1 3v1l-2 4-1 2-2 3-2 2-2-1-2-2c-1-1-2-1-2-3h-1l-3-3v-1l1-1h1l2-1 1-1h7l1-1v-1l-1-1-1-2h-1l-1-2-4-3-3-2v-1c2 2 4 2 6 2l2-1 2-2 2-1 1-1h2l5 3zm-16-2l1-1-1 1zm-14-12c0-2 0-3 2-4l6-5 3-2 7-4 4-1h1v4l1 1 1 7v7l-1 4h-1l-4 1-1 1-2 1h-4l-3-2h-1l-3 1h-1l-1-2-2-1-1-1-1-1-1-1 2-3zm9 12v1l-2-1h2zm-26-9l2-1 2-1h2v1l1 2v1l1-1v-1l-1-1h1a120 120 0 013 4c0 2 0 2 2 3l1 1 1-1 1 1c0 2 1 3 3 3l3 3 3 2 2 2 1 1-4-1-4-1-3-1-1-1-4-2-1-1h-1l-1-1-4-2a116 116 0 01-6-4l-2-1 3-3zm24 23v1h-1l1-1zm-4-3h-1l-4-1h2l3 1zm-10-4c-1 0-2 0-3-2 1 0 3 0 3 2zm-18-20h6l-2 1-1 2-4-2 1-1zm5 11l-1 1-1-2 2 1zm-7-10zm1 8v-1h3l1 2-3 1-2 3-1 2v3h1l2-1h2l2 1 1-1 1-3v-1l3-1 1 1 2 2 3 2-1 1v2c1 2 3 2 4 1l1-1 1-1 1 1v2h-12-4-2l-1-1h-1l-3-2-3-2-1-1 1-4v-1l1-1 1-1 2-1zm5 21l2 2v2h-1l-3-1h-2-5l-2 1h-1l1-2 2-2 2-1c1-1 2-1 2-3h2l3 1v3zm3 6h1c-1 1-1-1-3-1l2 1zm-12-31h2-3 1zm-3 1h1-1zm-5-5h1l-1 1v-1zm-30-6l2-3 3-5 1-2 1-2 1-1 5 3h2v1l3 1 2 3 3 4 3 3 2 5v1l1 4-5-3-4 1-3 1h-1l-3 1-3-1-3-1h-4l-1-1-2-3v-2-4zm29 19h-1 1zm-3-3l-3 3v-1l-1-1-2-1h-1l1-3 2-1 5 2v1l-1 1zm0 6v-2 2zm-1 0l-2 2 2-2zm-26 0h1l1-1 1-2-2-2 2-3h7l3 1 2 1 3 1h1l1 3 2 1-1 2-1 2-2 3v1l-2 3v3h1v1 1l1 1h2l1-2 2-4 2-3 1-1 2-3h2l1-3v-1l2-3h1v3l1 2 2 4c-2 0-3 1-3 3l-3 3h-1l-1 2-3-3h4l2-2c-1-2-3-2-4-2l-2 2-1 1v2l-1 2 3 2 1 1v1h1l1-1 2-2 1-1 1-1 3-3 1-1 1-1h1l1 1-2 1-3 3h-1l-3 5-2 2 1 1 1 1v2 1h3c1-1 2-1 2-3l3-2h2l5 1 1 1 4 2 3-1 5-1h2v1l2 1 2 1v1l2 3 1 2-1 1-11 1h-9l-6-1h-6-2l2-1v-2l-2-2h-3v3l1 1 2 1-5-1-3-2v1h-1l-2 1-1-1 4-2 2-1v-1-1l1-1v-2l-6-3h-3-1l-6-5-1-1-2-4-2-1h-1l-3-1v-2l-4-3h-1l1-1zm27 33h-1 1zm-5-10l2-2 3 3h-2l-3-1zm-7 50v3l-2 3v-1l1-4-1-1 2-3h1l-1 3zm-2 10v-2 2zm0-3h1l-1 1v-1zm0 15l1 2-1-2zm2-33c0 1 0 2-2 2v1l-1 3-1 1-3 4-2 2-1 1-2 2h-1l-1 1-2 3h-1c-2 0-3 1-4 3l-1 1h-1l-4 3-3 1v-4-1l-1-3v-1-3-2-2-3l1-1c-1-1 0-3 1-4l1 1 3 1 2-2v-1l-1-1h-3l-2 1-1-3v-1l2-4 1-1 2-2h4c2 0 3 0 4 2h11l5 2v1h1v3zm-3-18h-1l1-1v1zm0 7l1 1h-1v-1zm0-23zm0 9v1l-1 3v-4-1h1v1zm-1-13l-1 2h-1l-2 3v2h-4l3-1v-3l-2-3-3-2h-2l2-2 2-3 1-1c1-1 2 1 2 1v1c-1 1 0 2 1 2l1 2 3-1v-1l-1-1 2 1h2v-1l-1-1-6-4-2-3v-1l2 1 5 5 3 2 1 1v1l-5 4zm-10 9h-1zm-3-1H84h-1l-5-1h-1 1l6-1h3l2-2h1l4-1 3-1h1l4 2 1 1 3 1 2 1-2 1zm2-5l-6-2h-1c1-2 2-2 3-1h2l4 2 1 1h-3zm16-3l1-2 4 1c-1 2-4 2-6 1h1zm4 7v-1 1zm-3 0zm4 2h-5zM96 40h1c2-1 6-1 8 1l-5-1h-1l-4 1-2-1h3zm-3-1zm0 5h12l1 1 2 1 2 1-1 2v4l-1 3v1l-4 3-4 1h-1l-1 1-1 1-2 1-3 1-2 1-3 1h-1l-3 1h-1l-3 1h-6l-1-1v-1l1-1v-4l-1-2v-2l1-1v-1-1-1-2l1-3v-1l1-3v-1l2-2 3-2 2-1h4l3 2 2 1 2 2zM77 75l-2 1h-2-2-2-1l9-1zm-10-3l1-1 1 1h-1-1zm4-27l-4-2-1-2 2-2h4l3-2h3l-3 1-2 3-2 4zm8-9c1-2 2-2 4-1h-2l-1 1h-1zm5-1v-1h5v1l2 1 1 2-1 1c-2-2-4-4-7-4zm-35-6h1l3-2 1-1h1l2-1 3-2h5v-2l2-1 1 1c2 2 3 1 4 0v-1l-1-2 2-1h3v3 2h2l2-2v-1l-1-2h4l-1 2-1 2 1 2h2l1-1 1-2h2l1 3 2 2v1l1 2-1 2-3-1-5-1h-2l-2-1h-7-6l-5 1h-3l-4 1h-5zm12 7l-2-1-6-1h-1l-1-1 1-1h5l2-1h8l1-1h3l5 1h1l1-1 4 1h-2l-2 1-1 1h-2l-2 1-1 1h-1l-8 1h-2zm2 12h-1 1zM38 59l-1-1h-1l1-1h1l3-2 5-1 4-2 3-1 2-1 1-1 3-1h2l-1 3-2 1v-1h-3l-2 2 1 2 4-1 1-1 1 1h2l1-1 1 1c1 0 3 0 3-2l-1-2-2-2 1-1h4l1 1v4 2l-2 4v3l1 2v1h-2l-3-1-1-1-1-1-3-1-2 1-3 1v1l1 2 1-1h4l3 2 1 1h3v3h-6-1l-4-3-2-1h-1l-3-2-4-3h-1l-3-1-4-1zm9 9l-2-2-1-1h-1l-2-2h1l6 3c1 1 3 3 5 3l3 2-5-1-4-2zm3 13v-1h1l-1 1zm8 11l-1-1h2l-1 1zm1 16l1 1v2l-1-3zm1 4v1-1zm-2 23l3-1 1 3h-1l-3-2zm5 14l-1 2v4h-1v-1-6-3-1-4-3l1 1 1 7 1 1-1 3zm1-35h0zm46 50l-1 1v3l-1 4v4l-1 4h-4l-5 1-6-1-1-1-3-1h-6l-1-1h12l-3-2h-6l-1-1h2l6-2 1-2h-3l-5 2-7 1c-2 1-2 0-3-1v-1a149 149 0 01-1-6v-2l-1-2-1-7 1-1h9l6-1h2l-1-1h-1l-1-1 2-1 2-1-2-1-4 1-8 1-6 1-2-2v-2h9l5-1h9l-1-2h-5-1l1-1h1v-1h-3l-6 1-6 1h-3v-1-3l3-1h14l1-1h1l-1-1a114 114 0 00-8-1l2-1 4-1v-2h-2l-6 2-6 2h-3l-1-3v-2-5l15-2-1-1 1-1 1-1h-2l-6 1h-2l-5 1h-1l-1-1v-3l10-1h4l4-1h1l-1-1h-4l-4-1h-8 1l2-1h4l1-1 2-1 3-1-1-1h-4l-4 1-7 1-1-2a114 114 0 010-7l-1-4-1-1v-1-4h11l2 1h2l3-1h7l1-1h-4l-8-1h-2v-1l-5-2h-4l-4-1h-2l-5-1-1-1-1-1 3-1h10l2 1-2 1v2h3l5-1h7l1 1v-2l-3-1-5-1-2-1h-2l-5-1h-9v-1c-2-1-4-2-4-4l4 1v1l3 1h14l11-1h11l5-1h18l1 8h-1c-3 0-4 2-5 5l-1 2v1l2 1 3-3v-1h2v4c-4 0-4 0-6 2l-2-2h-2l-5-2h-6l-2 1-2 4-1 1-1 1v1l-1 3 1 2v2l-1 1-1 5v4a130 130 0 000 5v3l1 2v3l1 3c0 2 1 3 3 3h2l4-2 3-3h2l2-1 1-1 1-2 2-1 2-3 3-2 2-2 1-1v1l-1 3v7l-1 3-1 3 2 2-1 1-3 2-2 3v6l1 4-2 2v10zM67 83zm38 141v-1 1zm9 16v2h-1l-1-2-2-4-1-1-2-4-2-5h1c1 1 3 2 3 4l1 1 3 6 1 3zm0-24l3-1h1l1 2v2l-2 5a10 10 0 01-1 4v4l-2-2v-1l-3-1-1-2c-2-2-3-5-3-7s2-4 4-2l1 2 2-3zm-3-12v-1l1 1h-1zm2-34v3l-1 4c0 1 1 2-1 3v-2l1-6v-1l1-4v-1h1l-1 4zm0-4v-1 1zm2-5l-1 1-1 1v-2l1-3v-2l1 2v3zm1-14v-1-2l1-2 1-1h3l1 1v1l2 1 2 1 1-2 2-1h2l3 1 3 2 1 2v1l-1 5-2 6-1 2v2l-1 2-1 1-1 2v2l-2-1-2-2-2-3-3-3-1-2-3-4-1-3-1-2v-3zm74 24l-1-1 1-1 1 1-1 1zm4-20v-1 1zm-8-47h-11l7-2 7-1 7-1v3h-3l-7 1zm6 1zm-11 2l4-1h4l6-1 2 1v2h-18v-1h2zm16-10l-2 2-5-1 1-1h-4l6-1 1-1h4l-1 2zm-12-5h1l2 2h-3v-1-1zm15 0l-2-1h-4-1l2-1 3-1 1 1 2 1v1 2l-1-2zm1 4v2-2zm0 11h-1v-1l1-6h1l-1 7zm-1-22c-1-1-1-2-3-1l-1 1c-3 1-5 0-7 2v1l-1 1-8 1-3 1-9 1h-10l-3 1h-7l-2 2h-2l-2 1 2 1h5l3 1h5l1-1-1-1h14l3-1h9c0 2 0 2 2 2h1l-5 1h-3l-2 2v1l-3 1-4 1-2 1v1l2 1h3v1l-1 1 2 2h7l10-1h4l2 1-10 1-9 1-4 1h-6l-1 1v2h12l1 1h-2l-7 1h-4l-2 1 1 2h10l6 1 1-1-4-1h-5l1-1h10l7-1 1-1h-7v-1l-9-1 3-1h3l7-1 7-1h1v7h-3v6l-1 1-9-1h-1 1l4-1 1-1h-15l-1 3 2 1h4l6 1h1-4l-4 1h-4l-1 1v1l3 1 10 1h7l1 1h-1l-5 1h-6l-4 1h-3l-1 1 2 2h15v1h-6l-9 1-4 1h-1l2 3h3l6 1 2 1h1v-1l-4-2-4-1h7l7-1 3-1 1 1v5l-2-2h-3l-1 1 1 3-5 1h-4c-1 0-2 1-1 2l1 2 3 1h5l1 1-1 1-6 1-4 1-2 2 2 2h1l4 1 2 1h1l3 1 1 1-4 1h-3c-2 0-3 1-2 3 2 2 6 1 9 2h-3-1c-1 2-2 2-4 2h-4l-3-1h-3l-5 1-1 2 1 1-6 1-2-1h-5l-6 1h-6v-1h-11l-7 1h-8l-1-1 1-4v-5l1-5 2 2 2 1 3 3 1 1 1 2c2 2 4 2 6 0l1-1 1-2v-2l3-5 1-4 1-6v-1-3-2-2-1h-1l-1-3-1-2-2-1h-9v-3l-1-2v-1l1-5v-1c1-1 0-1-1-2l1-3v-4l1-2v-1-3-1-3l-1-1v-3-1l-1-5v-1l-1-4v-1-3l-1-2-1-2v-1l1-5c0-1 0-2 2-2l6 1h5l7-1h10l5-1h9l5-1h16l-1 1h-11v1l2 2 3-1h13l3-2 3-1 4-1 1-1v-2l-2-1h-3l-1 1h-4-1l-5 1h-7-1l-1-2-1-3-1-2v-1-2l-3-1h-2l-4-1h-7v-1l2-1 1 1h1l-1-3c-1-1-2 0-3 1l-1-1v-1l-2-3 2-1h10c2 1 4 0 5 2h1-2l-2 2 2 2 2-2 1-1v1l4 4h-1c-2-1-2-1-3 1l2 2 2-1v-1h1l3 2 1 1 1 2-3-1h-3l-1 1v1c0 1 1 2 2 1l1 1 1 1c0 1 1 2 3 2h1v-1l-2-2c1-1 2-1 2-3l1 1 3 3h1l3 1h1l2-3v-1l2-3v-1l2-2c1 1 2-1 4-1l4-2h2l2-1 7 1h4l3-1 1 1-3 4-2 1-3 2-1 1-5 2h-3-3l-2 1-1 1-1 2 1 5-1 2h-10-1c1 1 0 1-1 2l-1 2 1 1h2l5-1 2-1 3-1v3l-2 1-1 1c-1-1-3 0-4 1zm-17 32v-1h1v1h-1zm12 20h-7 7zm-1-5h-1l-4-1h-3l-1-1h6l3-1v3zm-4 31l-8-2 8-2v4zm0-11l-1 1-3-1h4zm22-36l-1-2v-1l-2-4-3-2h-3l1-7 1-1v-1-3-4l-2-1 3-1 4-2 1-1-2-1h-2l4-5v-2h2c1 1 1 2 2 1 1 1 2 3 3 2l3 6-6 1-2 2-1 1-3 4v1l1 2 1 3v5l1 1 1 3h1v2l1 2 1 4-4-2zm9 16l-1 2v3l-1 1-1-1v-1l1-2v-4-4l3 3-1 3zm1-11l-1 1v-1l-1-3c1 1 2 0 3 2l-1 1zm16-26l2 2h1l2 2v6l-1 4-1 4h-1l-1 1-2 1-1 1-2 2v2c-1 0-1 2-2 1l-1 2-1 1-4 4-2-4 2-3-2-2v-1c1-1 0-2-1-2l-3-1-1 1-1-1h1l1-1h2l1-1-1-1-1-1-4-1-1-1-1-2-1-3v-1l1-1 1-2h2v1l3 2 1-1-1-3-1-2-2-1h-2c-2 1-2 1-3-1l1-1 1-1 1-1c1-1 2-2 3-1l4 1 3 1v2c1 1 2 2 3 1l4-1h5zm-13-5h0zm5 2h1-1zm20-13h-1l-4 3-5 5h-1l-3 1h-5c-1 1-2 0-3-1h-3l-1-3v-3c1-1 0-2-1-3l-1-1h-2l-1-1h-3v-1l-2-1v-1c0-1 0-2 2-2l3-2 1-1 1-1 1 1-1 1-1 1h5l2-1h14l1 2 3 1 1-1 3 1 3 2 1 2-3 3zm3-5h-1 1zm5 2h1-1z"/>
  <path d="M49 129l-2-1v-1l1-2h1v-2h-1v-2c1-1 3-3 5-3h3l1 1-1 1-3 1-2 1-1 2h1l1 2h1v4l-2 2h-4c0-1 0-2 2-3zM52 114l1 1-2 3-2-1v-2l2-1h1zM59 129zM145 62h0zM157 80h-2l-7 1h-1-1l-3 1h-4l-2-1h-3l-1-1 1-1 2-1h9c2-1 5 0 7 1h4l1 1zm-22 0h0zM169 85l-1 1h-2l-1 1-10 1-4 1-1-2c-1-1 0-2 2-2h10l3-1 4 1zM181 80l-1 1-1 1h-3l-3 1h-2l-3-1-1-1 1-2h2l6 1h5zM134 92c-2 0-2-1-2-2v-1h2l5 1 1 1h-1l-4 1h-1zM84 164c4 1 8 1 12 4h-4l-8-1h-7l-2-2a367 367 0 0118-4l-2 1-7 2zM88 156l5 1-1 1h-3l-11 1h-3-1v-2l2-1a484 484 0 0115-1h-2l-1 1zM107 81l-3 1h-3l-2-2h-2l-3 1h-1l-2-2v-1h14v1l2 2zM101 89h-1l-3-1-10 1h-4l-2-1 1-2h16l2 1 1 2zM82 130l-4 1h-6l-1 1-4-1v-2h2l7-1h5v1l1 1zM73 98a10 10 0 010 1l5 1 3 1h1l-2 1H67l-2-1c-1-1 0-2 1-2l6-1h1zM81 95l-3 1h-7l-3 1c-3 0-3 0-4-2l2-2 3 1h1a763 763 0 0011 1zM73 106l-2 3c-1 1-4 0-5-1l1-1 2-2h3l1 1zM155 66l-1 1-1 1c0 2-1 3-3 3l-2-2v-1h1v-1h3l-3-1-1-2c0-2 0-2 2-2l3 1 1 1v1l1 1zM120 41h3v2l-4 2h-3v-2l1-1 3-1zM112 38l4-1h1l2 1v1l-3 1h-3l-1-2zM169 68l-1-1-1-2 1-1h2l1 3-2 1zM171 68c2-1 3 0 4 1-1 1-1 2-3 2l-1-3zM87 43l4 1c1 2 0 2-1 3-1 2-2 1-3 1l-3 2-4 1-2-1v-2l3-1 1-2-1-1 1-1h5zM104 50l1 1 1 1-2 2h-3-1l-3-2-2-2v-1c1-1 1-2 3-2l5 2 1 1zM85 54l-2 1-3 1h-1l-1-1v-2h1l2-1 1-1c2 0 3 1 3 2v1zM76 63l-1-1v-2l1-1h3l2 2-1 1h-2l-2 1zM97 55l-1 2-2-2-1-1c1-1 2-1 4 1zM90 62h-4l2-2c1-1 2 0 2 2zM90 59h3v1h-1l-2-1zM109 103l5-2h2l3 2v2l-2 2-3 2-1 3-1 3h-2l-1-1v-1-2l-1-2 2-2 3-1 2-2h-2l-1 1c-2 0-2-1-3-2zM95 116l-1-1-1-2c1-1 2-3 4-3l2 1v2l-2 2 1 3v4c-1 2-3 2-4 1l-1-2 1-2 1-2v-1zM98 98h3l1 2-1 1h-1l2 1-2 2h-2l-1-1-1-1 1-3 1-1zM103 117l2-2h3v2l-2 2-1 1-2-1v-2zM42 194l-1-1-1-3 2-2v-1-1h-1v-2c2-1 3-2 4-1 2 0 2 1 2 2l-1 2v3l-1 2v3l-1 1 1 1c1 1 2 3 1 4l-4 2h-2v-2-3l2-3v-1zM36 190l-1 2-1 1v8h-2l-1-1h-2c-2-1-3-2-2-4v-1c-1-1-1-2 1-2l2-1 1-2 3-1 2 1zM36 186l-2 1-5 4-2 1-2-1 1-1 4-4 4-2 1 1 1 1zM233 112l-1 2v1l1 1v2l-2 1c-1-1-2-1-2-3l-1-1h2l-1-1v-1l1-3v-1-1l1-2 2-2 1-1h4l2 1v2c-1 0-3 0-4 2 1 1 0 2-1 3l-2 1zM238 100l-2 2h-4-1l-1-1 1-1 4-1 3 1zM216 106l2-2h3l1 1-1 1h-1l-1 1h-2l-1-1zM249 77l-5 2-3 2h-4l-2 2-3 2-2-1v-1-2l3-1h1l4-2 6-2 2-1 2-1 1 3zM239 71l-2 2h-4-3l-1-1 2-2 3 1h1c1-2 3-2 4 0zM231 77l-2 1h-2v-1l-1-2v-2l1-1 2 1 1 1c-1 1 0 2 1 3zM29 75l4-1 3 1 1 3-1 5h-5l-2-1-2-2v-1l2-1v-3zM42 91v1l-2 1h-5c-2 1-2 1-3-1h-1v-1l1-2h6l4 2zM21 82v-2h2c2 1 2 2 1 4l-1 1h-4l-1 1-2-1-1-1 2-3 4 1zM190 26l3-2h1v-2l2-1c1-1 2 0 2 1v2h-1l1 2v4l-1 1-4-1-1-1c-2 0-2-1-2-3zM177 25h2l1-1v-2l1-1c2 0 5 1 5 3v2l1 2-2 1-2-1h-2c-2 0-3 0-3-2l-1-1c1 0 0 0 0 0zM188 17v-1-1l3-1v-1c2 1 2 2 1 4l-2 1h-1l1 3h-3l-1-1-1-1 1-1 2-1zM198 12l-3 2-2-2h1l3-1 1 1zM47 54c2 0 3 1 3 2v2h-1l-3-1v-2l1-1zM126 156c2 1 2 3 3 5 1 1 0 2-2 3l-2-2v-1l-1-2-1-1-1-2c1-1 1-1-1-2l-1-1 2-1h4v4zM117 148l3-1c1-1 1 0 2 1v2l-1 1-1 1-2-1-1-1 1-1-1-1zM133 151l-2-1h-1c-1-1-2-1-1-2l1-2 2 1h1c1 0 2 1 1 2l-1 2zM132 154c1 0 2 0 2 2h-4l-1-1 1-1h2zM117 27h-1v1l-4-1-1-1 2-1h2l-1-1v-3-3-4l2-1 2 3-1 1h1c2 1 2 1 1 2l2 1v3h1v1l1 2c-2 2-3 2-5 2l-1-1zM130 18l2 5 3 2-3 2-2-2-4-3-1-2v-1c1-2 3-2 4-2l1 1zM193 55l-2 1c-1 1-2 0-2-1l2-2 2 2zM200 58l-2 1-2-1 2-2c1 0 2 0 2 2zM170 33c0 1 0 2-2 2l-2-3h1l1-1c2 0 2 1 2 2zM159 42c1-2 1-2 3-2l2 1 1 1-1 1h-2c-1 1-2 0-3-1zM98 72l-1-1v-1h1l1 1-1 1z"/>
</svg>
